<?xml version="1.0" encoding="UTF-8"?>
<svg xmlns="http://www.w3.org/2000/svg" xmlns:xlink="http://www.w3.org/1999/xlink" width="150px" height="57px" viewBox="0 0 150 57" version="1.1">
<g id="surface1">
<path style=" stroke:none;fill-rule:nonzero;fill:rgb(100%,100%,100%);fill-opacity:1;" d="M 1.074219 10.257812 C 1.113281 10.261719 1.148438 10.261719 1.1875 10.257812 C 1.859375 10.257812 2.328125 9.691406 2.324219 8.894531 C 2.324219 8.597656 2.246094 8.300781 2.089844 8.046875 C 1.890625 7.699219 1.515625 7.492188 1.113281 7.503906 C 0.535156 7.53125 0.015625 8.15625 0 8.847656 C -0.015625 9.601562 0.460938 10.199219 1.074219 10.257812 Z M 1.074219 10.257812 "/>
<path style=" stroke:none;fill-rule:nonzero;fill:rgb(100%,100%,100%);fill-opacity:1;" d="M 34.726562 12.898438 C 34.609375 12.363281 34.46875 11.847656 34.300781 11.335938 C 34.28125 11.351562 34.261719 11.367188 34.238281 11.378906 C 34.179688 11.410156 34.128906 11.453125 34.085938 11.503906 C 33.792969 12.054688 33.484375 12.582031 33.15625 13.09375 C 31.902344 15.074219 30.289062 16.800781 28.394531 18.179688 C 28.265625 18.269531 28.054688 18.410156 28.164062 18.617188 C 28.273438 18.824219 28.492188 18.722656 28.667969 18.617188 C 30.382812 17.671875 31.980469 16.527344 33.335938 14.949219 C 33.417969 14.855469 33.492188 14.742188 33.570312 14.640625 C 33.804688 15.664062 33.964844 16.703125 34.050781 17.75 C 34.097656 18.359375 34.125 18.972656 34.125 19.601562 C 34.125 21.144531 33.964844 22.6875 33.648438 24.199219 C 33.496094 24.933594 33.300781 25.660156 33.066406 26.371094 C 32.984375 26.207031 32.894531 26.042969 32.808594 25.882812 C 32.519531 25.371094 32.21875 24.867188 31.894531 24.382812 C 29.972656 21.496094 27.425781 19.214844 24.488281 17.835938 C 22.070312 14.589844 20.207031 10.878906 18.527344 7.011719 C 18.351562 6.613281 18.296875 5.90625 17.910156 5.933594 C 17.582031 5.953125 17.472656 6.644531 17.296875 7.054688 C 15.664062 10.839844 13.835938 14.476562 11.460938 17.707031 L 11.359375 17.84375 C 8.421875 19.230469 5.871094 21.507812 3.949219 24.398438 C 3.628906 24.882812 3.324219 25.382812 3.042969 25.898438 C 2.953125 26.050781 2.871094 26.21875 2.785156 26.378906 C 2.554688 25.667969 2.359375 24.945312 2.207031 24.214844 C 1.886719 22.703125 1.726562 21.15625 1.726562 19.609375 C 1.726562 18.992188 1.753906 18.382812 1.800781 17.78125 C 1.886719 16.730469 2.046875 15.6875 2.28125 14.660156 C 2.328125 14.734375 2.378906 14.800781 2.4375 14.867188 C 3.6875 16.332031 5.203125 17.539062 6.902344 18.433594 C 7.304688 18.714844 7.695312 19.015625 8.242188 18.863281 L 7.207031 18.09375 C 6.070312 17.203125 5.039062 16.1875 4.132812 15.066406 C 3.621094 14.433594 3.144531 13.773438 2.707031 13.089844 C 2.347656 12.527344 2.003906 11.945312 1.683594 11.339844 C 1.664062 11.359375 1.644531 11.375 1.625 11.386719 C 1.5625 11.441406 1.527344 11.464844 1.511719 11.5 C 1.460938 11.621094 1.417969 11.746094 1.382812 11.875 C 1.300781 12.183594 1.230469 12.476562 1.164062 12.773438 C -0.339844 17.925781 -0.0976562 23.429688 1.847656 28.429688 C 2.125 29.125 2.4375 29.808594 2.785156 30.472656 C 3.007812 29.777344 3.269531 29.09375 3.566406 28.429688 C 3.90625 27.667969 4.292969 26.929688 4.722656 26.21875 C 6.789062 22.796875 9.785156 20.207031 13.273438 18.976562 C 16.285156 17.90625 19.570312 17.90625 22.578125 18.976562 C 26.078125 20.207031 29.078125 22.808594 31.148438 26.238281 C 31.570312 26.945312 31.949219 27.675781 32.28125 28.425781 C 32.578125 29.09375 32.839844 29.777344 33.066406 30.46875 C 33.410156 29.804688 33.722656 29.121094 34 28.425781 C 35.105469 25.617188 35.671875 22.625 35.667969 19.609375 C 35.671875 17.335938 35.355469 15.078125 34.726562 12.898438 Z M 34.726562 12.898438 "/>
<path style=" stroke:none;fill-rule:nonzero;fill:rgb(100%,100%,100%);fill-opacity:1;" d="M 17.890625 5.105469 C 19.113281 5.121094 20.042969 4.0625 20.078125 2.636719 C 20.101562 1.878906 19.816406 1.136719 19.285156 0.59375 C 18.945312 0.246094 18.484375 0.0390625 17.996094 0.0195312 C 17.464844 0.0078125 16.949219 0.214844 16.574219 0.59375 C 16.074219 1.089844 15.789062 1.765625 15.777344 2.46875 C 15.738281 3.9375 16.664062 5.09375 17.890625 5.105469 Z M 17.890625 5.105469 "/>
<path style=" stroke:none;fill-rule:nonzero;fill:rgb(100%,100%,100%);fill-opacity:1;" d="M 5.914062 15.046875 C 6.242188 13.414062 6.789062 11.902344 7.679688 10.570312 C 7.953125 10.160156 8.164062 10.082031 8.515625 10.507812 C 9.367188 11.523438 10.40625 12.371094 11.574219 13 C 11.792969 13.121094 12.007812 13.34375 12.289062 13.199219 C 12.285156 13.0625 12.210938 12.9375 12.09375 12.867188 C 10.621094 11.578125 9.238281 10.179688 8.34375 8.226562 C 8.242188 8.007812 7.992188 7.621094 7.710938 8.152344 C 6.679688 10.089844 5.769531 12.078125 5.632812 14.425781 C 5.582031 14.878906 5.464844 15.339844 5.722656 15.78125 C 5.980469 15.554688 5.789062 15.257812 5.914062 15.046875 Z M 5.914062 15.046875 "/>
<path style=" stroke:none;fill-rule:nonzero;fill:rgb(100%,100%,100%);fill-opacity:1;" d="M 27.285156 10.566406 C 27.679688 10.105469 27.914062 10.183594 28.226562 10.648438 C 29.011719 11.820312 29.46875 13.171875 29.871094 14.566406 C 29.925781 14.75 29.882812 15.027344 30.207031 15.070312 C 30.207031 12.550781 29.457031 10.382812 28.183594 8.417969 C 27.863281 7.921875 27.691406 7.988281 27.433594 8.46875 C 26.488281 10.175781 25.21875 11.6875 23.699219 12.90625 L 22.765625 13.582031 C 23.238281 13.535156 23.664062 13.425781 24.019531 13.117188 C 25.269531 12.5 26.382812 11.632812 27.285156 10.566406 Z M 27.285156 10.566406 "/>
<path style=" stroke:none;fill-rule:nonzero;fill:rgb(100%,100%,100%);fill-opacity:1;" d="M 8.328125 7.441406 C 8.921875 7.882812 9.285156 7.503906 9.605469 6.957031 C 9.941406 5.800781 9.703125 5.007812 8.957031 4.796875 C 8.378906 4.644531 7.800781 5.011719 7.609375 5.667969 C 7.386719 6.421875 7.644531 7.054688 8.328125 7.441406 Z M 8.328125 7.441406 "/>
<path style=" stroke:none;fill-rule:nonzero;fill:rgb(100%,100%,100%);fill-opacity:1;" d="M 27.167969 7.429688 C 27.785156 7.429688 28.300781 6.832031 28.316406 6.125 C 28.332031 5.414062 27.839844 4.804688 27.21875 4.769531 C 26.59375 4.734375 26.078125 5.273438 26.054688 6.015625 C 26.03125 6.78125 26.539062 7.425781 27.167969 7.429688 Z M 27.167969 7.429688 "/>
<path style=" stroke:none;fill-rule:nonzero;fill:rgb(100%,100%,100%);fill-opacity:1;" d="M 33.816406 10.628906 C 33.859375 10.632812 33.898438 10.632812 33.941406 10.628906 C 34.527344 10.558594 34.976562 9.980469 34.964844 9.273438 C 34.957031 8.585938 34.40625 7.96875 33.816406 7.972656 C 33.453125 7.984375 33.125 8.183594 32.941406 8.496094 C 32.792969 8.742188 32.71875 9.019531 32.71875 9.300781 C 32.71875 10.054688 33.191406 10.625 33.816406 10.628906 Z M 33.816406 10.628906 "/>
<path style=" stroke:none;fill-rule:nonzero;fill:rgb(100%,100%,100%);fill-opacity:1;" d="M 33.304688 34.769531 C 33.285156 34.636719 33.21875 34.515625 33.121094 34.425781 C 33.046875 34.273438 32.886719 34.132812 32.609375 33.921875 C 32.441406 33.796875 32.273438 33.675781 32.101562 33.558594 L 32.117188 33.546875 L 32.238281 33.445312 C 32.347656 33.347656 32.449219 33.246094 32.542969 33.136719 C 32.667969 32.996094 32.804688 32.867188 32.957031 32.757812 C 33.292969 32.535156 33.132812 32.191406 33.085938 32.078125 C 33.023438 31.953125 32.949219 31.835938 32.863281 31.726562 C 32.71875 31.429688 32.519531 31.1875 32.273438 30.992188 C 31.898438 30.664062 31.492188 30.367188 31.066406 30.109375 C 30.929688 28.207031 29.828125 26.953125 27.867188 26.476562 C 27.621094 26.410156 27.390625 26.285156 27.203125 26.109375 C 27.074219 25.972656 26.898438 25.886719 26.710938 25.863281 C 27.023438 25.6875 27.351562 25.535156 27.691406 25.414062 C 28.007812 25.296875 28.128906 25.074219 28.039062 24.777344 C 27.785156 23.953125 27.253906 23.320312 26.761719 22.800781 C 26.675781 22.6875 26.542969 22.621094 26.402344 22.625 C 26.328125 22.640625 26.261719 22.679688 26.21875 22.738281 L 26.199219 22.730469 L 26.164062 22.707031 L 26.105469 22.609375 L 26.105469 22.671875 C 25.792969 22.472656 25.445312 22.335938 25.082031 22.269531 L 25.023438 22.257812 L 24.988281 22.277344 L 24.96875 22.261719 C 24.921875 22.234375 24.871094 22.214844 24.820312 22.199219 L 24.796875 22.136719 L 24.691406 22.136719 C 24.613281 22.128906 24.539062 22.128906 24.460938 22.121094 C 24.332031 22.125 24.207031 22.109375 24.085938 22.078125 C 24.058594 22.035156 24.042969 21.988281 24.035156 21.941406 C 24.011719 21.832031 23.957031 21.726562 23.882812 21.640625 L 23.894531 21.574219 L 23.804688 21.511719 C 23.726562 21.457031 23.652344 21.40625 23.570312 21.347656 L 23.40625 21.238281 C 22.546875 20.792969 21.640625 20.777344 20.796875 20.839844 C 20.738281 20.839844 20.683594 20.839844 20.625 20.847656 L 20.265625 20.878906 L 19.636719 20.90625 L 19.609375 20.914062 C 19.46875 20.96875 19.316406 20.992188 19.164062 20.988281 L 19.113281 20.988281 L 19.070312 21.007812 C 18.964844 21.058594 18.84375 21.078125 18.722656 21.066406 L 18.554688 21.066406 L 18.53125 21.117188 C 18.378906 21.125 18.226562 21.160156 18.085938 21.21875 C 17.953125 21.285156 17.800781 21.3125 17.648438 21.289062 C 16.640625 20.789062 15.710938 20.769531 14.796875 21.242188 L 14.785156 21.253906 C 14.632812 21.347656 14.523438 21.5 14.488281 21.675781 C 14.453125 21.851562 14.488281 22.035156 14.59375 22.179688 C 14.703125 22.371094 14.871094 22.519531 15.078125 22.597656 C 14.722656 22.5625 14.371094 22.503906 14.027344 22.417969 C 13.882812 22.382812 13.742188 22.324219 13.613281 22.25 C 13.570312 22.230469 13.53125 22.203125 13.496094 22.167969 C 13.53125 22.121094 13.574219 22.085938 13.621094 22.0625 C 13.640625 22.054688 13.65625 22.046875 13.675781 22.039062 C 13.761719 22.007812 13.984375 21.921875 13.917969 21.675781 C 13.84375 21.40625 13.574219 21.457031 13.480469 21.472656 C 13.464844 21.480469 13.445312 21.484375 13.425781 21.484375 C 13.292969 21.496094 13.164062 21.511719 13.03125 21.539062 L 12.878906 21.5625 L 12.828125 21.578125 C 12.503906 21.746094 12.367188 21.988281 12.410156 22.296875 C 12.359375 22.917969 12.273438 23.535156 12.148438 24.148438 L 12.148438 24.15625 C 12.128906 24.277344 12.105469 24.410156 12.082031 24.53125 C 12.054688 24.65625 12.035156 24.675781 12.023438 24.6875 C 12.011719 24.695312 11.960938 24.710938 11.828125 24.667969 C 10.851562 24.359375 10.246094 23.789062 9.984375 22.910156 C 9.96875 22.871094 9.960938 22.828125 9.960938 22.785156 C 10.007812 22.773438 10.054688 22.773438 10.101562 22.777344 C 10.410156 22.8125 10.703125 22.910156 10.972656 23.058594 C 11.136719 23.140625 11.300781 23.214844 11.472656 23.277344 C 11.648438 23.355469 11.851562 23.351562 12.023438 23.265625 C 12.15625 23.152344 12.230469 22.980469 12.214844 22.804688 L 12.214844 22.742188 L 12.179688 22.695312 C 12.160156 22.675781 12.144531 22.652344 12.132812 22.628906 C 12.082031 22.542969 12.011719 22.46875 11.925781 22.417969 C 11.160156 21.96875 10.230469 21.886719 9.398438 22.191406 C 9.15625 22.277344 9.070312 22.464844 9.140625 22.75 C 9.191406 22.980469 9.257812 23.214844 9.316406 23.4375 C 9.339844 23.523438 9.367188 23.613281 9.386719 23.703125 L 9.40625 23.742188 C 9.753906 24.355469 10.246094 24.871094 10.84375 25.242188 L 10.863281 25.25 C 11.785156 25.65625 12.769531 25.84375 13.707031 26.003906 C 13.859375 26.015625 14.003906 26.027344 14.15625 26.039062 C 15.070312 26.109375 16.011719 26.191406 16.902344 26.472656 C 17.472656 26.664062 18.007812 26.964844 18.46875 27.355469 C 15.796875 28.070312 13.695312 29.753906 11.863281 32.640625 C 11.863281 32.640625 11.855469 32.648438 11.847656 32.652344 C 11.824219 32.570312 11.789062 32.515625 11.742188 32.464844 C 11.683594 32.253906 11.59375 32.050781 11.476562 31.863281 C 11.421875 31.648438 11.347656 31.429688 11.273438 31.222656 C 11.144531 30.882812 11.050781 30.53125 10.984375 30.175781 C 10.972656 30.113281 10.960938 30.0625 10.953125 30 L 10.929688 29.910156 C 10.761719 29.054688 10.640625 28.179688 10.523438 27.332031 C 10.453125 26.882812 10.390625 26.421875 10.320312 25.964844 C 10.300781 25.832031 10.277344 25.695312 10.257812 25.5625 L 10.257812 25.53125 L 10.238281 25.503906 C 10.203125 25.425781 10.175781 25.34375 10.167969 25.257812 C 10.15625 25.074219 10.078125 24.902344 9.953125 24.769531 L 9.839844 24.667969 L 9.730469 24.773438 C 9.730469 24.773438 9.71875 24.78125 9.703125 24.789062 C 9.652344 24.824219 9.617188 24.878906 9.609375 24.945312 C 9.589844 25.207031 9.582031 25.476562 9.566406 25.738281 L 9.554688 25.980469 L 9.554688 26.003906 C 9.558594 26.019531 9.5625 26.035156 9.566406 26.054688 C 9.574219 26.066406 9.578125 26.078125 9.578125 26.089844 C 9.589844 26.515625 9.605469 26.902344 9.625 27.261719 C 9.75 29.273438 10.070312 30.894531 10.632812 32.316406 C 9.890625 31.625 9.097656 31.003906 8.328125 30.421875 L 8.316406 30.414062 L 8.164062 30.296875 C 8.0625 30.230469 7.960938 30.167969 7.855469 30.097656 C 7.632812 29.957031 7.394531 29.8125 7.1875 29.660156 C 6.796875 29.371094 6.710938 29.066406 6.894531 28.636719 C 7.273438 27.753906 7.753906 26.921875 8.328125 26.152344 C 8.398438 26.0625 8.46875 25.96875 8.542969 25.867188 C 8.875 25.46875 9.15625 25.027344 9.378906 24.558594 L 9.453125 24.382812 L 9.265625 24.335938 C 9.136719 24.304688 9.003906 24.328125 8.890625 24.402344 L 8.875 24.410156 C 8.859375 24.421875 8.839844 24.429688 8.816406 24.4375 L 8.753906 24.4375 L 8.707031 24.476562 C 8.25 24.84375 7.84375 25.269531 7.503906 25.746094 C 6.734375 26.859375 6.253906 28.085938 5.847656 29.25 C 5.675781 29.726562 5.796875 29.988281 6.246094 30.164062 C 6.257812 30.167969 6.269531 30.167969 6.28125 30.171875 C 5.285156 30.386719 4.511719 30.988281 3.855469 31.542969 C 3.609375 31.738281 3.40625 31.984375 3.265625 32.261719 C 3.214844 32.375 3.054688 32.726562 3.390625 32.9375 C 3.542969 33.050781 3.683594 33.175781 3.804688 33.320312 C 3.898438 33.429688 4.003906 33.53125 4.113281 33.628906 L 4.230469 33.730469 C 4.464844 33.933594 4.753906 34.191406 5.179688 34.144531 C 5.074219 35.210938 5.460938 36.101562 6.398438 36.964844 C 7.136719 37.703125 8.035156 38.21875 8.820312 38.621094 C 8.925781 38.671875 9.027344 38.726562 9.128906 38.785156 C 9.464844 38.96875 9.816406 39.132812 10.175781 39.273438 C 10.316406 39.328125 10.464844 39.375 10.617188 39.40625 C 10.769531 39.515625 10.902344 39.648438 11.015625 39.800781 C 11.125 39.941406 11.25 40.070312 11.390625 40.183594 C 11.488281 40.320312 11.613281 40.4375 11.75 40.53125 C 11.835938 40.59375 11.914062 40.660156 11.984375 40.734375 C 12.023438 40.773438 12.066406 40.808594 12.113281 40.835938 L 14.960938 42.457031 C 15.136719 42.457031 15.15625 42.46875 15.175781 42.582031 C 15.179688 42.59375 15.183594 42.605469 15.191406 42.621094 C 15.199219 42.65625 15.207031 42.691406 15.21875 42.722656 L 15.167969 42.765625 C 15.226562 42.890625 15.304688 43.007812 15.394531 43.113281 C 15.546875 43.363281 15.777344 43.554688 16.050781 43.660156 C 16.191406 43.707031 16.320312 43.785156 16.425781 43.886719 C 16.523438 44.082031 16.597656 44.289062 16.640625 44.503906 C 16.652344 44.570312 16.675781 44.644531 16.695312 44.714844 C 16.734375 44.875 16.761719 45.035156 16.773438 45.199219 L 16.789062 45.300781 C 17.054688 47.316406 17.191406 49.359375 17.28125 51.386719 C 17.269531 51.660156 17.257812 51.933594 17.242188 52.207031 L 17.242188 52.222656 C 17.203125 53.039062 17.160156 53.878906 17.128906 54.707031 C 17.109375 55.273438 17.09375 55.84375 17.074219 56.421875 L 17.316406 56.421875 C 17.316406 56.542969 17.316406 56.667969 17.304688 56.789062 L 17.601562 56.789062 C 17.601562 56.851562 17.601562 56.914062 17.601562 56.972656 L 19.011719 56.972656 C 18.996094 56.394531 18.984375 55.824219 18.957031 55.261719 C 18.929688 54.429688 18.890625 53.59375 18.847656 52.773438 L 18.847656 52.761719 C 18.847656 52.742188 18.847656 52.722656 18.847656 52.703125 C 18.941406 50.25 19.074219 47.753906 19.394531 45.308594 L 19.410156 45.203125 C 19.421875 45.039062 19.449219 44.878906 19.488281 44.722656 C 19.507812 44.648438 19.527344 44.578125 19.542969 44.507812 C 19.660156 44.054688 19.757812 43.660156 20.273438 43.476562 C 20.714844 43.292969 21.039062 42.902344 21.140625 42.433594 C 21.144531 42.421875 21.148438 42.40625 21.148438 42.394531 C 21.167969 42.285156 21.191406 42.261719 21.371094 42.269531 L 21.550781 42.164062 L 23.097656 41.761719 C 23.546875 41.621094 23.976562 41.429688 24.378906 41.191406 C 24.597656 41.0625 24.808594 40.921875 25.011719 40.769531 C 25.632812 40.34375 26.105469 39.726562 26.359375 39.011719 C 26.492188 38.957031 26.625 38.898438 26.753906 38.832031 L 26.894531 38.832031 C 28.132812 38.59375 29.324219 38.160156 30.425781 37.546875 C 31.382812 37.023438 32.234375 36.335938 32.945312 35.507812 C 33.203125 35.191406 33.332031 34.988281 33.304688 34.769531 Z M 27.265625 33.351562 C 27.351562 33.238281 27.464844 33.148438 27.597656 33.09375 L 27.609375 33.09375 C 27.875 32.953125 28.144531 32.816406 28.429688 32.679688 L 28.53125 32.628906 C 28.542969 32.960938 28.492188 33.289062 28.378906 33.597656 C 27.992188 34.480469 27.238281 35.023438 26.511719 35.550781 C 26.398438 35.628906 26.285156 35.707031 26.152344 35.785156 C 26.296875 35.476562 26.429688 35.167969 26.558594 34.863281 C 26.761719 34.34375 26.996094 33.839844 27.265625 33.351562 Z M 15.566406 24.078125 C 15.222656 24.171875 14.886719 24.300781 14.570312 24.460938 L 14.414062 24.535156 C 14.316406 24.582031 14.121094 24.667969 14.132812 24.871094 C 14.132812 24.988281 14.121094 25.023438 14.113281 25.023438 C 14.050781 25.03125 13.988281 25.027344 13.925781 25.015625 C 13.882812 25.015625 13.839844 25.003906 13.800781 25 C 13.472656 24.972656 13.144531 24.9375 12.832031 24.890625 C 12.808594 24.890625 12.785156 24.886719 12.765625 24.878906 C 13.019531 24.132812 13.035156 23.398438 13.011719 22.710938 L 13.011719 22.644531 C 13.035156 22.65625 13.058594 22.667969 13.085938 22.679688 C 15.070312 23.75 17.148438 23.375 18.941406 22.941406 L 19.539062 22.789062 L 20.980469 22.355469 C 21.046875 22.351562 21.117188 22.34375 21.183594 22.335938 C 21.320312 22.308594 21.457031 22.304688 21.59375 22.328125 C 21.640625 22.34375 21.695312 22.351562 21.746094 22.355469 C 21.875 22.382812 21.9375 22.398438 21.976562 22.433594 C 21.472656 22.613281 20.953125 22.726562 20.421875 22.78125 L 20.371094 22.78125 C 20.230469 22.78125 19.910156 22.8125 19.910156 23.167969 C 19.902344 23.285156 19.949219 23.398438 20.035156 23.476562 C 20.160156 23.578125 20.316406 23.617188 20.472656 23.585938 C 21.148438 23.550781 21.808594 23.394531 22.429688 23.125 C 22.703125 23 23.058594 22.773438 22.988281 22.289062 L 23.003906 22.152344 L 22.953125 22.101562 L 22.867188 22.011719 C 22.71875 21.863281 22.546875 21.738281 22.363281 21.640625 C 22.558594 21.691406 22.746094 21.761719 22.933594 21.84375 L 23.015625 21.882812 L 23.054688 21.898438 L 23.105469 21.898438 L 23.382812 22.144531 C 23.527344 22.445312 23.464844 22.722656 23.175781 23.042969 C 22.886719 23.371094 22.496094 23.597656 22.070312 23.691406 L 21.019531 23.808594 L 20.542969 23.855469 L 19.644531 23.867188 C 19.480469 23.867188 19.316406 23.859375 19.152344 23.855469 C 17.972656 23.816406 16.753906 23.785156 15.566406 24.078125 Z M 20.496094 27.3125 L 20.515625 27.304688 C 21.757812 26.878906 22.753906 26.492188 23.648438 26.089844 C 23.902344 25.976562 24.152344 25.84375 24.398438 25.71875 C 24.5 25.660156 24.609375 25.609375 24.714844 25.554688 L 24.773438 25.527344 L 24.785156 25.492188 L 24.839844 25.492188 L 24.882812 25.449219 C 24.976562 25.371094 25.066406 25.292969 25.167969 25.21875 L 25.175781 25.207031 C 25.542969 24.816406 25.710938 24.347656 25.886719 23.816406 C 25.925781 23.71875 25.976562 23.628906 26.039062 23.546875 C 26.132812 23.433594 26.207031 23.304688 26.253906 23.167969 C 26.328125 23.277344 26.40625 23.386719 26.476562 23.496094 C 26.734375 23.84375 26.953125 24.214844 27.128906 24.613281 C 27.148438 24.660156 27.15625 24.683594 27.160156 24.699219 C 27.144531 24.710938 27.125 24.71875 27.105469 24.726562 C 26.644531 24.910156 26.152344 25.121094 25.601562 25.371094 C 25.339844 25.511719 25.109375 25.703125 24.925781 25.933594 C 24.867188 25.996094 24.808594 26.0625 24.75 26.121094 L 24.722656 26.152344 C 24.289062 26.875 23.894531 27.632812 23.511719 28.367188 C 23.359375 28.675781 23.1875 28.984375 23.027344 29.292969 L 23.011719 29.332031 C 22.992188 29.410156 22.972656 29.484375 22.953125 29.5625 L 22.953125 29.570312 C 22.902344 29.753906 22.851562 29.941406 22.8125 30.128906 C 22.800781 30.167969 22.796875 30.179688 22.796875 30.183594 L 22.765625 30.183594 C 22.292969 30.148438 21.808594 30.132812 21.34375 30.121094 C 20.109375 30.085938 18.832031 30.046875 17.625 29.632812 C 17.546875 29.605469 17.472656 29.574219 17.398438 29.535156 C 17.203125 29.414062 16.976562 29.355469 16.746094 29.375 L 16.347656 29.429688 L 16.558594 29.582031 L 16.328125 29.613281 C 15.980469 29.660156 15.753906 29.871094 15.535156 30.074219 C 15.4375 30.167969 15.335938 30.253906 15.226562 30.328125 C 14.824219 30.59375 14.441406 30.890625 14.066406 31.179688 C 13.898438 31.308594 13.730469 31.441406 13.554688 31.566406 C 15.253906 29.324219 17.730469 27.800781 20.496094 27.304688 Z M 26.046875 34 C 25.433594 34.613281 24.808594 35.222656 24.175781 35.789062 C 23.433594 36.457031 22.699219 37.0625 21.984375 37.625 C 21.96875 37.609375 21.949219 37.597656 21.929688 37.582031 C 20.195312 36.484375 18.242188 35.953125 16.363281 35.4375 C 15.957031 35.328125 15.546875 35.207031 15.148438 35.085938 C 15.09375 35.066406 15.035156 35.054688 14.980469 35.03125 C 15.222656 34.984375 15.460938 34.902344 15.679688 34.789062 C 15.828125 34.710938 15.980469 34.652344 16.140625 34.617188 L 16.277344 34.558594 L 17.203125 34.558594 C 17.316406 34.558594 17.4375 34.558594 17.558594 34.558594 C 17.847656 34.574219 18.136719 34.570312 18.421875 34.539062 C 18.695312 34.503906 18.925781 34.492188 19.113281 34.683594 L 19.148438 34.71875 L 19.191406 34.726562 C 20.320312 34.980469 21.816406 35.25 23.371094 35.015625 C 23.457031 35.003906 23.546875 34.996094 23.636719 34.988281 L 23.65625 34.988281 C 23.691406 34.984375 23.726562 34.984375 23.765625 34.976562 L 23.804688 34.964844 C 24.570312 34.683594 25.320312 34.359375 26.046875 33.992188 Z M 12.46875 33.394531 C 12.960938 32.988281 13.453125 32.574219 13.933594 32.175781 L 14.476562 31.722656 C 14.640625 31.59375 14.804688 31.464844 14.96875 31.339844 C 15.488281 30.972656 15.960938 30.546875 16.382812 30.066406 C 16.417969 30.015625 16.445312 29.964844 16.472656 29.914062 L 16.5 29.867188 L 16.628906 29.640625 L 16.667969 29.671875 C 17.898438 30.597656 19.328125 30.765625 20.578125 30.84375 C 20.765625 30.859375 20.960938 30.867188 21.15625 30.878906 C 21.617188 30.902344 22.085938 30.929688 22.585938 30.984375 C 21.40625 31.566406 20.214844 32.070312 19.050781 32.5625 C 18.167969 32.945312 17.25 33.335938 16.363281 33.746094 L 16.347656 33.753906 C 16.207031 33.847656 16.050781 33.921875 15.886719 34.007812 C 15.480469 34.179688 15.113281 34.4375 14.8125 34.765625 L 14.660156 34.933594 L 14.078125 34.765625 C 13.375 34.570312 12.917969 34.042969 12.445312 33.492188 L 12.445312 33.484375 C 12.433594 33.472656 12.421875 33.457031 12.410156 33.445312 C 12.429688 33.421875 12.449219 33.402344 12.46875 33.386719 Z M 12.457031 39.867188 C 12.433594 39.851562 12.410156 39.832031 12.394531 39.808594 C 13.121094 39.839844 13.871094 39.8125 14.617188 39.714844 C 14.804688 39.695312 14.996094 39.675781 15.1875 39.660156 L 15.210938 39.660156 C 15.261719 39.644531 15.3125 39.632812 15.363281 39.625 L 17.0625 39.285156 L 18.007812 39.09375 C 17.46875 39.414062 16.960938 39.789062 16.492188 40.207031 L 16.089844 40.710938 L 16.019531 40.792969 C 15.996094 40.820312 15.976562 40.84375 15.949219 40.882812 C 15.859375 41.011719 15.757812 41.070312 15.488281 41.003906 C 14.5 40.765625 13.386719 40.503906 12.457031 39.859375 Z M 17.867188 42.9375 C 17.820312 42.949219 17.777344 42.949219 17.730469 42.945312 L 17.722656 42.945312 C 17.707031 42.945312 17.6875 42.945312 17.671875 42.945312 L 17.652344 42.945312 C 17.34375 42.957031 17.035156 42.945312 16.839844 42.726562 C 16.800781 42.6875 16.765625 42.636719 16.738281 42.585938 C 16.730469 42.5625 16.714844 42.542969 16.699219 42.519531 L 16.667969 42.46875 C 16.710938 42.476562 16.75 42.480469 16.792969 42.476562 C 16.859375 42.476562 16.925781 42.476562 17 42.476562 L 17.109375 42.484375 L 17.28125 42.484375 C 17.40625 42.484375 17.535156 42.496094 17.65625 42.507812 C 17.777344 42.523438 17.808594 42.574219 17.835938 42.691406 C 17.847656 42.753906 17.855469 42.816406 17.859375 42.882812 C 17.863281 42.898438 17.863281 42.914062 17.867188 42.929688 Z M 19.421875 41.960938 C 19.410156 41.988281 19.394531 42.007812 19.386719 42.027344 C 19.359375 42.082031 19.324219 42.128906 19.285156 42.171875 C 19.078125 42.390625 18.785156 42.402344 18.472656 42.390625 L 18.449219 42.390625 C 18.433594 42.390625 18.417969 42.390625 18.398438 42.390625 L 18.394531 42.390625 C 18.347656 42.394531 18.300781 42.390625 18.257812 42.382812 C 18.257812 42.382812 18.257812 42.363281 18.257812 42.324219 C 18.261719 42.257812 18.269531 42.195312 18.28125 42.128906 C 18.308594 42.015625 18.351562 41.96875 18.457031 41.953125 C 18.566406 41.933594 18.710938 41.929688 18.832031 41.925781 L 19.113281 41.925781 C 19.183594 41.921875 19.25 41.921875 19.320312 41.925781 C 19.363281 41.929688 19.40625 41.925781 19.449219 41.917969 Z M 25.523438 39.3125 C 25.46875 39.371094 25.414062 39.429688 25.355469 39.488281 C 24.613281 40.265625 23.632812 40.78125 22.570312 40.957031 C 20.976562 41.222656 19.269531 41.3125 17.085938 41.230469 C 16.902344 41.230469 16.71875 41.21875 16.527344 41.210938 C 16.484375 41.210938 16.445312 41.203125 16.402344 41.195312 C 16.421875 41.171875 16.445312 41.144531 16.46875 41.125 C 16.503906 41.097656 16.539062 41.070312 16.570312 41.042969 C 16.65625 40.972656 16.738281 40.894531 16.816406 40.8125 C 16.941406 40.679688 17.085938 40.566406 17.242188 40.472656 L 17.277344 40.445312 C 17.726562 40.0625 18.238281 39.761719 18.796875 39.558594 C 19.433594 39.324219 20.09375 39.160156 20.765625 39.070312 C 21.339844 38.992188 21.921875 38.96875 22.5 39 L 22.519531 39 C 22.941406 38.957031 23.363281 38.945312 23.789062 38.957031 L 23.808594 38.957031 C 24.074219 38.957031 24.347656 38.957031 24.621094 38.949219 C 25.066406 38.929688 25.519531 38.910156 25.960938 38.890625 C 25.804688 39.015625 25.65625 39.15625 25.523438 39.304688 Z M 30.859375 36.109375 C 29.410156 37.183594 27.691406 37.820312 25.894531 37.949219 L 25.867188 37.949219 L 25.84375 37.960938 C 25.792969 37.980469 25.742188 37.988281 25.6875 37.984375 L 25.667969 37.984375 C 25.1875 38.042969 24.707031 38.054688 24.226562 38.019531 C 24.839844 37.648438 25.4375 37.261719 26.023438 36.878906 L 26.367188 36.65625 L 26.378906 36.648438 C 26.570312 36.492188 26.78125 36.339844 26.992188 36.1875 C 27.335938 35.945312 27.660156 35.683594 27.96875 35.402344 C 28.542969 34.855469 29.082031 34.214844 29.167969 33.253906 C 29.40625 33.375 29.644531 33.480469 29.875 33.585938 C 30.214844 33.726562 30.542969 33.890625 30.859375 34.078125 C 30.972656 34.144531 31.082031 34.222656 31.183594 34.3125 C 31.234375 34.355469 31.277344 34.398438 31.320312 34.445312 C 31.472656 34.59375 31.5625 34.792969 31.578125 35.003906 C 31.597656 35.359375 31.335938 35.746094 30.859375 36.101562 Z M 30.859375 36.109375 "/>
<path style=" stroke:none;fill-rule:nonzero;fill:rgb(100%,100%,100%);fill-opacity:1;" d="M 111.296875 38.582031 C 111 38.832031 110.578125 38.957031 110.03125 38.957031 L 108.976562 38.957031 L 108.976562 40.777344 L 107.929688 40.777344 L 107.929688 35.707031 L 110.097656 35.707031 C 110.53125 35.683594 110.957031 35.824219 111.296875 36.097656 C 111.59375 36.359375 111.742188 36.765625 111.742188 37.3125 C 111.742188 37.914062 111.59375 38.335938 111.296875 38.582031 Z M 110.492188 36.757812 C 110.328125 36.636719 110.128906 36.574219 109.929688 36.585938 L 108.976562 36.585938 L 108.976562 38.085938 L 109.929688 38.085938 C 110.132812 38.101562 110.332031 38.035156 110.492188 37.90625 C 110.636719 37.75 110.710938 37.539062 110.691406 37.328125 C 110.714844 37.117188 110.640625 36.90625 110.492188 36.757812 Z M 110.492188 36.757812 "/>
<path style=" stroke:none;fill-rule:nonzero;fill:rgb(100%,100%,100%);fill-opacity:1;" d="M 116.308594 36.605469 L 113.6875 36.605469 L 113.6875 37.683594 L 116.085938 37.683594 L 116.085938 38.566406 L 113.6875 38.566406 L 113.6875 39.871094 L 116.433594 39.871094 L 116.433594 40.78125 L 112.652344 40.78125 L 112.652344 35.710938 L 116.308594 35.710938 Z M 116.308594 36.605469 "/>
<path style=" stroke:none;fill-rule:nonzero;fill:rgb(100%,100%,100%);fill-opacity:1;" d="M 120.578125 35.839844 C 120.765625 35.917969 120.925781 36.039062 121.054688 36.191406 C 121.160156 36.320312 121.246094 36.464844 121.304688 36.617188 C 121.371094 36.789062 121.402344 36.96875 121.398438 37.152344 C 121.398438 37.398438 121.335938 37.644531 121.21875 37.863281 C 121.089844 38.101562 120.875 38.277344 120.617188 38.355469 C 120.824219 38.429688 121 38.570312 121.113281 38.757812 C 121.230469 39.003906 121.28125 39.277344 121.269531 39.550781 L 121.269531 39.890625 C 121.261719 40.046875 121.273438 40.207031 121.296875 40.363281 C 121.316406 40.484375 121.386719 40.585938 121.492188 40.652344 L 121.492188 40.777344 L 120.320312 40.777344 C 120.285156 40.667969 120.261719 40.574219 120.25 40.507812 C 120.222656 40.363281 120.207031 40.214844 120.207031 40.070312 L 120.207031 39.597656 C 120.207031 39.277344 120.144531 39.058594 120.039062 38.953125 C 119.929688 38.84375 119.730469 38.789062 119.4375 38.789062 L 118.398438 38.789062 L 118.398438 40.777344 L 117.367188 40.777344 L 117.367188 35.707031 L 119.785156 35.707031 C 120.054688 35.699219 120.324219 35.746094 120.578125 35.839844 Z M 118.398438 36.585938 L 118.398438 37.949219 L 119.535156 37.949219 C 119.707031 37.960938 119.878906 37.929688 120.042969 37.867188 C 120.242188 37.773438 120.347656 37.582031 120.347656 37.296875 C 120.347656 37.011719 120.253906 36.785156 120.058594 36.679688 C 119.90625 36.613281 119.738281 36.582031 119.570312 36.589844 Z M 118.398438 36.585938 "/>
<path style=" stroke:none;fill-rule:nonzero;fill:rgb(100%,100%,100%);fill-opacity:1;" d="M 122.449219 35.714844 L 126.054688 35.714844 L 126.054688 36.605469 L 123.5 36.605469 L 123.5 37.777344 L 125.738281 37.777344 L 125.738281 38.660156 L 123.5 38.660156 L 123.5 40.785156 L 122.449219 40.785156 Z M 122.449219 35.714844 "/>
<path style=" stroke:none;fill-rule:nonzero;fill:rgb(100%,100%,100%);fill-opacity:1;" d="M 126.773438 35.707031 L 127.847656 35.707031 L 127.847656 38.824219 C 127.832031 39.085938 127.875 39.347656 127.972656 39.59375 C 128.097656 39.878906 128.378906 40.019531 128.804688 40.019531 C 129.230469 40.019531 129.507812 39.878906 129.636719 39.59375 C 129.734375 39.347656 129.773438 39.085938 129.757812 38.824219 L 129.757812 35.707031 L 130.832031 35.707031 L 130.832031 38.824219 C 130.855469 39.261719 130.769531 39.695312 130.578125 40.089844 C 130.273438 40.640625 129.679688 40.917969 128.800781 40.917969 C 127.925781 40.917969 127.335938 40.644531 127.03125 40.089844 C 126.863281 39.789062 126.78125 39.371094 126.78125 38.832031 Z M 126.773438 35.707031 "/>
<path style=" stroke:none;fill-rule:nonzero;fill:rgb(100%,100%,100%);fill-opacity:1;" d="M 135.230469 35.707031 L 136.75 35.707031 L 136.75 40.777344 L 135.769531 40.777344 L 135.769531 37.347656 C 135.769531 37.25 135.769531 37.113281 135.769531 36.933594 C 135.769531 36.757812 135.769531 36.617188 135.769531 36.523438 L 134.808594 40.777344 L 133.789062 40.777344 L 132.839844 36.523438 C 132.839844 36.617188 132.839844 36.757812 132.839844 36.933594 C 132.839844 37.113281 132.839844 37.242188 132.839844 37.347656 L 132.839844 40.777344 L 131.855469 40.777344 L 131.855469 35.707031 L 133.390625 35.707031 L 134.3125 39.695312 Z M 135.230469 35.707031 "/>
<path style=" stroke:none;fill-rule:nonzero;fill:rgb(100%,100%,100%);fill-opacity:1;" d="M 141.445312 36.605469 L 138.828125 36.605469 L 138.828125 37.683594 L 141.226562 37.683594 L 141.226562 38.566406 L 138.828125 38.566406 L 138.828125 39.871094 L 141.570312 39.871094 L 141.570312 40.78125 L 137.792969 40.78125 L 137.792969 35.710938 L 141.445312 35.710938 Z M 141.445312 36.605469 "/>
<path style=" stroke:none;fill-rule:nonzero;fill:rgb(100%,100%,100%);fill-opacity:1;" d="M 143.246094 39.210938 C 143.257812 39.398438 143.324219 39.578125 143.4375 39.730469 C 143.613281 39.9375 143.910156 40.039062 144.335938 40.039062 C 144.542969 40.046875 144.753906 40.019531 144.949219 39.957031 C 145.222656 39.890625 145.410156 39.648438 145.402344 39.367188 C 145.40625 39.207031 145.320312 39.058594 145.183594 38.980469 C 144.960938 38.867188 144.726562 38.785156 144.480469 38.742188 L 143.933594 38.621094 C 143.394531 38.503906 143.027344 38.371094 142.824219 38.234375 C 142.484375 38 142.3125 37.632812 142.3125 37.136719 C 142.304688 36.703125 142.488281 36.289062 142.8125 36.003906 C 143.148438 35.703125 143.636719 35.550781 144.28125 35.554688 C 144.777344 35.539062 145.261719 35.6875 145.664062 35.976562 C 146.050781 36.269531 146.269531 36.726562 146.265625 37.210938 L 145.25 37.210938 C 145.25 36.933594 145.089844 36.679688 144.839844 36.558594 C 144.644531 36.46875 144.429688 36.425781 144.210938 36.433594 C 143.976562 36.421875 143.746094 36.476562 143.542969 36.597656 C 143.382812 36.695312 143.289062 36.871094 143.292969 37.058594 C 143.289062 37.230469 143.386719 37.390625 143.539062 37.464844 C 143.753906 37.5625 143.980469 37.632812 144.210938 37.675781 L 145.097656 37.882812 C 145.414062 37.945312 145.710938 38.070312 145.972656 38.253906 C 146.28125 38.503906 146.449219 38.890625 146.425781 39.289062 C 146.433594 39.734375 146.234375 40.160156 145.890625 40.441406 C 145.53125 40.75 145.027344 40.90625 144.375 40.90625 C 143.726562 40.90625 143.203125 40.753906 142.808594 40.453125 C 142.429688 40.15625 142.21875 39.695312 142.238281 39.210938 Z M 143.246094 39.210938 "/>
<path style=" stroke:none;fill-rule:nonzero;fill:rgb(100%,100%,100%);fill-opacity:1;" d="M 71.625 26.734375 L 77.238281 26.734375 L 77.238281 29.226562 L 71.625 29.226562 Z M 71.625 26.734375 "/>
<path style=" stroke:none;fill-rule:nonzero;fill:rgb(100%,100%,100%);fill-opacity:1;" d="M 90.488281 25.746094 C 90.160156 25.734375 89.78125 25.746094 89.429688 25.734375 L 86.203125 25.746094 C 85.894531 25.746094 85.648438 25.492188 85.648438 25.183594 L 85.648438 23.210938 C 85.648438 22.902344 85.894531 22.652344 86.203125 22.648438 L 93.296875 22.636719 L 93.316406 19.910156 C 93.316406 19.910156 87.003906 19.878906 86.269531 19.929688 C 84.253906 20.074219 83.351562 21.070312 83.089844 22.203125 C 82.898438 23.007812 82.933594 25.703125 83.003906 26.316406 C 83.117188 27.324219 83.574219 28.542969 85.808594 28.554688 L 90.785156 28.554688 C 91.09375 28.554688 91.339844 28.808594 91.339844 29.117188 L 91.320312 30.996094 C 91.324219 31.304688 91.074219 31.558594 90.769531 31.5625 L 82.851562 31.5625 L 82.851562 34.414062 C 82.851562 34.414062 87.945312 34.363281 91.460938 34.363281 C 92.632812 34.363281 94.179688 33.859375 94.074219 29.621094 C 93.996094 26.496094 92.667969 25.796875 90.488281 25.746094 Z M 90.488281 25.746094 "/>
<path style=" stroke:none;fill-rule:nonzero;fill:rgb(100%,100%,100%);fill-opacity:1;" d="M 100.074219 19.90625 L 102.773438 19.90625 L 102.773438 34.332031 L 100.074219 34.332031 Z M 100.074219 19.90625 "/>
<path style=" stroke:none;fill-rule:nonzero;fill:rgb(100%,100%,100%);fill-opacity:1;" d="M 50.410156 21.914062 C 50.203125 21.679688 49.976562 21.460938 49.730469 21.269531 C 48.238281 20.097656 46.265625 19.941406 44.4375 19.933594 L 44.4375 19.902344 L 41.738281 19.902344 L 41.738281 34.324219 L 44.4375 34.324219 C 45.558594 34.332031 46.679688 34.234375 47.78125 34.03125 C 51.59375 33.246094 52.351562 28.46875 51.792969 25.226562 C 51.585938 24.042969 51.214844 22.828125 50.410156 21.914062 Z M 48.171875 30.601562 C 47.152344 31.527344 45.730469 31.5 44.4375 31.492188 L 44.4375 22.699219 C 45.414062 22.699219 46.433594 22.726562 47.34375 23.121094 C 48.523438 23.636719 49.101562 24.753906 49.171875 25.992188 C 49.265625 27.628906 49.316406 29.558594 48.171875 30.601562 Z M 48.171875 30.601562 "/>
<path style=" stroke:none;fill-rule:nonzero;fill:rgb(100%,100%,100%);fill-opacity:1;" d="M 111.179688 19.980469 L 108.425781 19.980469 L 108.425781 34.332031 L 117.089844 34.332031 L 117.089844 31.527344 L 111.179688 31.527344 Z M 111.179688 19.980469 "/>
<path style=" stroke:none;fill-rule:nonzero;fill:rgb(100%,100%,100%);fill-opacity:1;" d="M 126.320312 31.125 C 126.285156 30.96875 122.765625 20.011719 122.765625 20.011719 L 119.875 20.011719 L 124.582031 34.332031 L 128.207031 34.332031 L 132.605469 19.964844 L 129.765625 19.964844 C 129.765625 19.964844 126.351562 30.972656 126.320312 31.125 Z M 126.320312 31.125 "/>
<path style=" stroke:none;fill-rule:nonzero;fill:rgb(100%,100%,100%);fill-opacity:1;" d="M 59.851562 19.964844 L 55.453125 34.332031 L 58.292969 34.332031 C 58.292969 34.332031 61.703125 23.324219 61.738281 23.171875 C 61.773438 23.328125 65.292969 34.285156 65.292969 34.285156 L 68.183594 34.285156 L 63.476562 19.964844 Z M 59.851562 19.964844 "/>
<path style=" stroke:none;fill-rule:nonzero;fill:rgb(100%,100%,100%);fill-opacity:1;" d="M 137.816406 19.964844 L 133.417969 34.332031 L 136.261719 34.332031 C 136.261719 34.332031 139.675781 23.324219 139.707031 23.171875 C 139.742188 23.328125 143.261719 34.285156 143.261719 34.285156 L 146.152344 34.285156 L 141.441406 19.964844 Z M 137.816406 19.964844 "/>
<path style=" stroke:none;fill-rule:nonzero;fill:rgb(100%,100%,100%);fill-opacity:1;" d="M 147.289062 20.003906 C 145.792969 20.003906 144.582031 21.222656 144.582031 22.722656 C 144.582031 24.226562 145.792969 25.445312 147.292969 25.441406 C 148.789062 25.441406 150 24.222656 150 22.722656 C 150 21.222656 148.785156 20.007812 147.289062 20.003906 Z M 147.289062 24.992188 C 146.039062 24.992188 145.027344 23.976562 145.027344 22.722656 C 145.027344 21.46875 146.039062 20.453125 147.289062 20.453125 C 148.539062 20.453125 149.554688 21.46875 149.554688 22.722656 C 149.546875 23.972656 148.539062 24.984375 147.289062 24.988281 Z M 147.289062 24.992188 "/>
<path style=" stroke:none;fill-rule:nonzero;fill:rgb(100%,100%,100%);fill-opacity:1;" d="M 147.566406 22.796875 L 147.566406 22.785156 C 147.871094 22.695312 148.078125 22.410156 148.074219 22.089844 C 148.082031 21.894531 148.003906 21.703125 147.859375 21.570312 C 147.691406 21.414062 147.449219 21.347656 147.074219 21.347656 C 146.847656 21.34375 146.621094 21.363281 146.398438 21.402344 L 146.398438 24.101562 L 146.75 24.101562 L 146.75 22.914062 L 147.082031 22.914062 C 147.402344 22.925781 147.542969 23.070312 147.625 23.445312 C 147.667969 23.667969 147.726562 23.886719 147.808594 24.101562 L 148.171875 24.101562 C 148.078125 23.855469 148.011719 23.605469 147.960938 23.351562 C 147.902344 23.066406 147.777344 22.871094 147.566406 22.796875 Z M 147.117188 22.644531 L 146.753906 22.644531 L 146.753906 21.648438 C 146.871094 21.621094 146.984375 21.609375 147.101562 21.613281 C 147.476562 21.613281 147.730469 21.765625 147.730469 22.125 C 147.730469 22.441406 147.488281 22.648438 147.117188 22.648438 Z M 147.117188 22.644531 "/>
</g>
</svg>
