<svg xmlns="http://www.w3.org/2000/svg" viewBox="0 0 705.3 94.7"><defs><style>.cls-1{fill:none;stroke:#000;stroke-miterlimit:10;stroke-width:0.5px;}</style></defs><title>Asset 2</title><g id="Layer_2" data-name="Layer 2"><g id="Layer_1-2" data-name="Layer 1"><rect x="194.81" y="44.58" width="36.55" height="16.19"/><path d="M317.6,38.17c-2.14-.06-4.59,0-6.88-.06l-21,.08a3.63,3.63,0,0,1-3.59-3.66V21.74a3.63,3.63,0,0,1,3.59-3.65L335.92,18,336,.31s-41.1-.19-45.87.13c-13.12.93-19,7.41-20.71,14.74-1.24,5.24-1,22.73-.54,26.71.72,6.52,3.7,14.44,18.25,14.5h32.4a3.63,3.63,0,0,1,3.6,3.65L323,72.28a3.64,3.64,0,0,1-3.6,3.66H267.89l0,18.51s33.17-.33,56.06-.33c7.64,0,17.71-3.28,17-30.77C340.46,43.05,331.8,38.51,317.6,38.17Z"/><rect x="380.03" y="0.29" width="17.57" height="93.59"/><path d="M56.69,13.31a34.24,34.24,0,0,0-4.42-4.19C42.57,1.53,29.72.52,17.82.46V.28H.25v93.6H17.82v0A116.87,116.87,0,0,0,39.58,92C64.4,86.85,69.35,55.85,65.69,34.82,64.35,27.13,62,19.23,56.69,13.31ZM42.13,69.69c-6.64,6-15.89,5.81-24.31,5.78V18.4c6.36,0,13,.19,18.91,2.74,7.68,3.34,11.45,10.6,11.92,18.64C49.26,50.39,49.57,62.92,42.13,69.69Z"/><polygon points="452.32 0.76 434.4 0.76 434.4 93.88 490.81 93.88 490.81 75.68 452.32 75.68 452.32 0.76"/><path d="M550.88,73.07C550.66,72.07,527.75,1,527.75,1H508.92l30.66,92.92h23.6L591.81.67h-18.5S551.1,72.07,550.88,73.07Z"/><path d="M118.16.67,89.53,93.88H108s22.21-71.41,22.43-72.4c.22,1,23.13,72.11,23.13,72.11h18.83L141.76.67Z"/><path d="M625.74.67,597.11,93.88h18.5s22.22-71.41,22.44-72.4c.22,1,23.13,72.11,23.13,72.11H680L649.34.67Z"/><path d="M687.41.93a17.64,17.64,0,1,0,17.64,17.63A17.66,17.66,0,0,0,687.41.93Zm0,32.36a14.73,14.73,0,1,1,14.73-14.73A14.74,14.74,0,0,1,687.41,33.29Z"/><path d="M689.21,19V19a4.63,4.63,0,0,0,3.35-4.51,4.39,4.39,0,0,0-1.4-3.37c-1.1-1-2.68-1.44-5.13-1.44a23.59,23.59,0,0,0-4.39.36V27.5h2.28V19.81h2.17c2.08.08,3,1,3.54,3.44a23.64,23.64,0,0,0,1.19,4.25h2.36a29.78,29.78,0,0,1-1.36-4.87C691.4,20.79,690.58,19.52,689.21,19Zm-2.94-1h-2.35V11.61a9.14,9.14,0,0,1,2.27-.22c2.42,0,4.08,1,4.08,3.32C690.27,16.74,688.71,18.08,686.27,18.08Z"/><rect class="cls-1" x="194.81" y="44.58" width="36.55" height="16.19"/><path class="cls-1" d="M317.6,38.17c-2.14-.06-4.59,0-6.88-.06l-21,.08a3.63,3.63,0,0,1-3.59-3.66V21.74a3.63,3.63,0,0,1,3.59-3.65L335.92,18,336,.31s-41.1-.19-45.87.13c-13.12.93-19,7.41-20.71,14.74-1.24,5.24-1,22.73-.54,26.71.72,6.52,3.7,14.44,18.25,14.5h32.4a3.63,3.63,0,0,1,3.6,3.65L323,72.28a3.64,3.64,0,0,1-3.6,3.66H267.89l0,18.51s33.17-.33,56.06-.33c7.64,0,17.71-3.28,17-30.77C340.46,43.05,331.8,38.51,317.6,38.17Z"/><rect class="cls-1" x="380.03" y="0.29" width="17.57" height="93.59"/><path class="cls-1" d="M56.69,13.31a34.24,34.24,0,0,0-4.42-4.19C42.57,1.53,29.72.52,17.82.46V.28H.25v93.6H17.82v0A116.87,116.87,0,0,0,39.58,92C64.4,86.85,69.35,55.85,65.69,34.82,64.35,27.13,62,19.23,56.69,13.31ZM42.13,69.69c-6.64,6-15.89,5.81-24.31,5.78V18.4c6.36,0,13,.19,18.91,2.74,7.68,3.34,11.45,10.6,11.92,18.64C49.26,50.39,49.57,62.92,42.13,69.69Z"/><polygon class="cls-1" points="452.32 0.76 434.4 0.76 434.4 93.88 490.81 93.88 490.81 75.68 452.32 75.68 452.32 0.76"/><path class="cls-1" d="M550.88,73.07C550.66,72.07,527.75,1,527.75,1H508.92l30.66,92.92h23.6L591.81.67h-18.5S551.1,72.07,550.88,73.07Z"/><path class="cls-1" d="M118.16.67,89.53,93.88H108s22.21-71.41,22.43-72.4c.22,1,23.13,72.11,23.13,72.11h18.83L141.76.67Z"/><path class="cls-1" d="M625.74.67,597.11,93.88h18.5s22.22-71.41,22.44-72.4c.22,1,23.13,72.11,23.13,72.11H680L649.34.67Z"/><path class="cls-1" d="M687.41.93a17.64,17.64,0,1,0,17.64,17.63A17.66,17.66,0,0,0,687.41.93Zm0,32.36a14.73,14.73,0,1,1,14.73-14.73A14.74,14.74,0,0,1,687.41,33.29Z"/><path class="cls-1" d="M689.21,19V19a4.63,4.63,0,0,0,3.35-4.51,4.39,4.39,0,0,0-1.4-3.37c-1.1-1-2.68-1.44-5.13-1.44a23.59,23.59,0,0,0-4.39.36V27.5h2.28V19.81h2.17c2.08.08,3,1,3.54,3.44a23.64,23.64,0,0,0,1.19,4.25h2.36a29.78,29.78,0,0,1-1.36-4.87C691.4,20.79,690.58,19.52,689.21,19Zm-2.94-1h-2.35V11.61a9.14,9.14,0,0,1,2.27-.22c2.42,0,4.08,1,4.08,3.32C690.27,16.74,688.71,18.08,686.27,18.08Z"/></g></g></svg>