<svg xmlns="http://www.w3.org/2000/svg" viewBox="0 0 232.2 369.59"><title>Asset 3</title><g id="Layer_2" data-name="Layer 2"><g id="Layer_1-2" data-name="Layer 1"><path d="M7,66.44a5.72,5.72,0,0,0,.72,0c4.39,0,7.43-3.68,7.4-8.84a10.43,10.43,0,0,0-1.51-5.51h0a7.08,7.08,0,0,0-6.35-3.52C3.49,48.75.09,52.8,0,57.29-.11,62.18,3,66.06,7,66.44Z"/><path d="M226.08,83.56a.93.93,0,0,0,0-.13q-1.14-5-2.77-10a4.41,4.41,0,0,1-.4.29,3.1,3.1,0,0,0-1,.81c-1.91,3.57-3.92,7-6.06,10.3a120.16,120.16,0,0,1-31,33c-.83.59-2.22,1.5-1.5,2.85s2.14.68,3.29,0c11.16-6.13,21.56-13.56,30.39-23.81.52-.6,1-1.33,1.52-2a143.64,143.64,0,0,1,3.12,20.18v0q.48,5.91.48,12a143.58,143.58,0,0,1-3.1,29.83.08.08,0,0,1,0,0,132.27,132.27,0,0,1-3.77,14.11c-.55-1.06-1.12-2.13-1.7-3.17q-2.79-5-5.94-9.75c-12.5-18.72-29.1-33.51-48.21-42.47-15.74-21.06-27.88-45.13-38.82-70.22-1.13-2.59-1.5-7.18-4-7-2.15.12-2.86,4.61-4,7.28-10.64,24.56-22.53,48.16-38,69.1l-.66.89h0c-19.12,9-35.73,23.78-48.23,42.54-2.09,3.13-4.07,6.37-5.91,9.72-.58,1-1.13,2.08-1.68,3.12A136.63,136.63,0,0,1,14.36,157h0a144.15,144.15,0,0,1-3.11-29.89q0-6,.48-11.86s0,0,0,0A140.35,140.35,0,0,1,14.86,95a13.82,13.82,0,0,0,1,1.35,98.69,98.69,0,0,0,29.08,23.14c2.61,1.82,5.17,3.78,8.73,2.78l-6.76-5a123.55,123.55,0,0,1-20-19.63,142.44,142.44,0,0,1-9.28-12.84q-3.52-5.46-6.68-11.34a3,3,0,0,1-.36.31h0c-.42.34-.65.49-.74.72A21.83,21.83,0,0,0,9,76.93c-.52,2-1,3.9-1.43,5.84v0a157.44,157.44,0,0,0,4.47,101.56,144,144,0,0,0,6.08,13.27,132.82,132.82,0,0,1,5.1-13.27A129.48,129.48,0,0,1,30.75,170h0C44.2,147.8,63.71,131,86.41,123A90.77,90.77,0,0,1,147,123c22.77,8,42.31,24.87,55.77,47.13h0a133.86,133.86,0,0,1,7.4,14.18,135.25,135.25,0,0,1,5.09,13.27,141.39,141.39,0,0,0,6.08-13.27A154.56,154.56,0,0,0,232.2,127.1,155.7,155.7,0,0,0,226.08,83.56Z"/><path d="M116.48,33c7.94.1,14-6.76,14.22-16a18.07,18.07,0,0,0-5.14-13.26h0A12.54,12.54,0,0,0,117.17,0a12.8,12.8,0,0,0-9.28,3.74,17.54,17.54,0,0,0-5.18,12.17C102.47,25.44,108.48,32.93,116.48,33Z"/><path d="M38.5,97.52C40.64,86.91,44.21,77.1,50,68.46c1.77-2.66,3.16-3.17,5.43-.4A68,68,0,0,0,75.34,84.22c1.43.8,2.84,2.24,4.66,1.29a2.59,2.59,0,0,0-1.26-2.14C69.14,75,60.15,65.93,54.31,53.26c-.66-1.43-2.28-3.93-4.12-.49-6.7,12.57-12.64,25.48-13.51,40.7-.35,2.94-1.1,5.94.58,8.81C38.94,100.81,37.69,98.88,38.5,97.52Z"/><path d="M177.62,68.45c2.58-3,4.11-2.5,6.15.53,5.09,7.6,8.09,16.37,10.7,25.4.36,1.21.08,3,2.19,3.27,0-16.34-4.9-30.41-13.19-43.16-2.08-3.21-3.19-2.78-4.88.33a97.39,97.39,0,0,1-24.31,28.81L148.21,88c3.08-.29,5.84-1,8.17-3A66.34,66.34,0,0,0,177.62,68.45Z"/><path d="M54.23,48.16c3.85,2.88,6.22.41,8.3-3.15,2.2-7.5.64-12.64-4.23-14-3.74-1-7.51,1.38-8.77,5.66C48.09,41.55,49.76,45.66,54.23,48.16Z"/><path d="M176.88,48.08c4,0,7.36-3.86,7.46-8.46s-3.1-8.57-7.15-8.79-7.42,3.26-7.56,8.08C169.48,43.88,172.78,48.06,176.88,48.08Z"/><path d="M220.15,68.85a5.42,5.42,0,0,0,.81,0c3.83-.45,6.74-4.2,6.68-8.81-.06-4.44-3.64-8.46-7.49-8.42a6.87,6.87,0,0,0-5.7,3.4A10.09,10.09,0,0,0,213,60.24C213,65.12,216.07,68.83,220.15,68.85Z"/><path d="M216.83,225.47a3.85,3.85,0,0,0-1.2-2.22c-.49-1-1.54-1.91-3.34-3.28-1.08-.8-2.18-1.59-3.29-2.35l.09-.09.78-.66a21.62,21.62,0,0,0,2-2,16.55,16.55,0,0,1,2.68-2.46c2.19-1.44,1.16-3.67.84-4.39a11.17,11.17,0,0,0-1.45-2.29.45.45,0,0,1,0-.1,14.13,14.13,0,0,0-3.84-4.67,56.73,56.73,0,0,0-7.84-5.72c-.91-12.35-8.07-20.47-20.83-23.58a10,10,0,0,1-4.32-2.37,5.18,5.18,0,0,0-3.21-1.59,38.89,38.89,0,0,1,6.37-2.92c2.06-.76,2.85-2.22,2.26-4.13-1.64-5.35-5.11-9.47-8.31-12.82a2.8,2.8,0,0,0-2.34-1.14,1.92,1.92,0,0,0-1.19.73l-.12-.07-.24-.15-.39-.62v.4a18.92,18.92,0,0,0-6.64-2.62l-.39-.06-.22.13-.15-.1a3.17,3.17,0,0,0-.95-.41l-.17-.41h-.67c-.52-.05-1-.06-1.51-.09a8.59,8.59,0,0,1-2.44-.3,2.4,2.4,0,0,1-.33-.87,4.33,4.33,0,0,0-1-1.95l.09-.45-.58-.39c-.52-.36-1-.69-1.53-1.07l-1-.65-.07-.05c-5.6-2.9-11.5-3-17-2.6-.36,0-.73,0-1.1.06l-2.35.19-4.08.18-.18.06a7.78,7.78,0,0,1-2.9.47h-.34l-.27.14a4.3,4.3,0,0,1-2.26.37H120.8l-.16.34a8.71,8.71,0,0,0-2.89.66,5,5,0,0,1-2.85.46c-6.56-3.25-12.61-3.37-18.56-.32l-.09.07A4.23,4.23,0,0,0,95,143.8a6.17,6.17,0,0,0,3.15,2.69,47.89,47.89,0,0,1-6.84-1.15,10.78,10.78,0,0,1-2.68-1.1,2.31,2.31,0,0,1-.76-.54,2.08,2.08,0,0,1,.81-.66,1.37,1.37,0,0,1,.36-.16c.54-.21,2-.77,1.56-2.35-.47-1.77-2.22-1.43-2.83-1.32a1.23,1.23,0,0,1-.36.06,23.73,23.73,0,0,0-2.57.36l-1,.16-.32.09c-2.12,1.1-3,2.67-2.74,4.67a102.75,102.75,0,0,1-1.68,12l0,.06c-.15.8-.29,1.64-.45,2.44s-.31.93-.38,1-.41.17-1.27-.11c-6.36-2-10.29-5.72-12-11.4a2.16,2.16,0,0,1-.14-.83,2.89,2.89,0,0,1,.91-.05,15.4,15.4,0,0,1,5.67,1.83,30.35,30.35,0,0,0,3.25,1.41,4.13,4.13,0,0,0,3.58-.06,3.56,3.56,0,0,0,1.26-3v-.4l-.24-.31a2.29,2.29,0,0,1-.31-.42,3.8,3.8,0,0,0-1.35-1.37,19.32,19.32,0,0,0-16.44-1.47c-1.57.54-2.13,1.76-1.69,3.63.34,1.49.76,3,1.15,4.44.15.57.33,1.16.47,1.74l.12.24a27.37,27.37,0,0,0,9.36,9.74l.12.06c6,2.62,12.41,3.84,18.52,4.87,1,.09,1.94.15,2.92.23,5.94.47,12.09,1,17.87,2.81a31.74,31.74,0,0,1,10.21,5.74c-17.4,4.64-31.09,15.56-43,34.29,0,0-.07.06-.1.07a.54.54,0,0,0,0-.12,4,4,0,0,0-.69-1.1,16,16,0,0,0-1.73-3.9c-.37-1.4-.85-2.8-1.32-4.15a37.3,37.3,0,0,1-1.88-6.8c-.08-.39-.15-.73-.22-1.13l-.14-.58c-1.09-5.56-1.9-11.23-2.65-16.74-.45-2.91-.87-5.91-1.33-8.87-.12-.86-.27-1.73-.41-2.6l0-.2-.11-.18a4.66,4.66,0,0,1-.46-1.59,5.23,5.23,0,0,0-1.4-3.19l-.73-.65-.72.68s-.09.07-.17.11a1.43,1.43,0,0,0-.63,1c-.12,1.72-.18,3.45-.28,5.16l-.07,1.58,0,.14a2.45,2.45,0,0,0,.09.32.75.75,0,0,1,.06.24c.07,2.77.19,5.26.32,7.6.81,13.06,2.9,23.56,6.55,32.8-4.82-4.49-10-8.52-15-12.3l-.07-.05-1-.76c-.66-.43-1.33-.84-2-1.28-1.46-.92-3-1.85-4.37-2.86-2.53-1.86-3.09-3.85-1.9-6.64a80.56,80.56,0,0,1,9.33-16.1c.46-.6.92-1.21,1.4-1.86a41.17,41.17,0,0,0,5.45-8.48l.49-1.15-1.22-.31a3.1,3.1,0,0,0-2.44.45l-.1.05a1.34,1.34,0,0,1-.39.16l-.4,0-.32.26a41.15,41.15,0,0,0-7.84,8.25c-5,7.21-8.13,15.17-10.78,22.72-1.1,3.09-.33,4.8,2.6,5.92a1.12,1.12,0,0,0,.23.06c-6.48,1.4-11.53,5.31-15.8,8.9a14.13,14.13,0,0,0-3.84,4.67c-.33.72-1.36,3,.83,4.38a16.27,16.27,0,0,1,2.69,2.47,21.63,21.63,0,0,0,2,2l.77.66c1.53,1.34,3.41,3,6.18,2.7a.87.87,0,0,0,0,.1c-.68,6.81,1.84,12.6,7.93,18.19,4.8,4.8,10.66,8.13,15.77,10.74.69.34,1.34.7,2,1.07a57.34,57.34,0,0,0,6.82,3.17,19.83,19.83,0,0,0,2.87.87,12.09,12.09,0,0,1,2.61,2.55,15.89,15.89,0,0,0,2.43,2.5,9.79,9.79,0,0,0,2.35,2.25,11,11,0,0,1,1.52,1.32,3.94,3.94,0,0,0,.85.64h0l18.52,10.52c1.15,0,1.28.09,1.42.81a2,2,0,0,0,.08.26c.06.23.12.46.18.67l-.32.28a9.9,9.9,0,0,0,1.48,2.24l0,0a8.58,8.58,0,0,0,4.27,3.56,6.16,6.16,0,0,1,2.43,1.47h0a15.52,15.52,0,0,1,1.4,4c.09.44.22.91.36,1.38a19.53,19.53,0,0,1,.52,3.12l.1.68c1.71,13.06,2.61,26.33,3.19,39.48-.07,1.77-.16,3.55-.25,5.32v.09c-.26,5.31-.54,10.75-.73,16.14-.14,3.66-.24,7.36-.36,11.11h1.57c0,.79,0,1.59-.07,2.39h1.94c0,.4,0,.8,0,1.2h9.18c-.1-3.75-.2-7.45-.36-11.11-.19-5.39-.45-10.83-.73-16.14v-.09c0-.12,0-.24,0-.36.61-15.93,1.49-32.13,3.56-48l.11-.68a18.47,18.47,0,0,1,.52-3.12c.13-.47.25-.94.35-1.38.77-2.95,1.4-5.5,4.75-6.69a9.5,9.5,0,0,0,5.64-6.76,1.31,1.31,0,0,0,.06-.27c.14-.71.27-.85,1.44-.81l1.18-.67,10.07-2.61a41.11,41.11,0,0,0,8.35-3.71,46.25,46.25,0,0,0,4.1-2.73A23.34,23.34,0,0,0,171.6,253c.88-.36,1.73-.75,2.57-1.17l.8,0h.12a77.61,77.61,0,0,0,23-8.35,58.31,58.31,0,0,0,16.39-13.22C216.16,228.2,217,226.88,216.83,225.47Zm-39.32-9.19a4.91,4.91,0,0,1,2.15-1.68l.08,0c1.74-.91,3.49-1.79,5.34-2.69l.66-.32a15.85,15.85,0,0,1-1,6.27c-2.5,5.73-7.41,9.26-12.14,12.69-.74.51-1.49,1-2.35,1.52.94-2,1.82-4,2.64-6A82.85,82.85,0,0,1,177.51,216.28ZM101.34,156.1a35.33,35.33,0,0,0-6.49,2.5l-1,.46c-.66.31-1.92.88-1.83,2.18,0,.76-.1,1-.13,1a3.4,3.4,0,0,1-1.24-.06c-.27,0-.55-.08-.81-.1-2.14-.17-4.26-.41-6.31-.7a3.15,3.15,0,0,1-.43-.07.47.47,0,0,1,.06-.24c1.6-4.62,1.69-9.37,1.54-13.84v-.42a3.24,3.24,0,0,1,.48.23c12.94,6.94,26.47,4.51,38.12,1.7l3.91-1,9.37-2.8a12.21,12.21,0,0,0,1.34-.15,7.42,7.42,0,0,1,2.65-.05,4.78,4.78,0,0,0,1,.2c.84.16,1.25.26,1.49.5a42.87,42.87,0,0,1-10.1,2.24l-.35,0c-.91,0-3,.22-3,2.53a2.47,2.47,0,0,0,.83,2,3.47,3.47,0,0,0,2.84.71,36.7,36.7,0,0,0,12.73-3c1.78-.8,4.1-2.27,3.66-5.41l.08-.9-.32-.33-.56-.57a14,14,0,0,0-3.29-2.43,27.11,27.11,0,0,1,3.72,1.32l.54.26.24.11h.35l1.8,1.6c.94,1.93.52,3.74-1.34,5.82a13.56,13.56,0,0,1-7.22,4.21l-6.84.75-3.08.32-5.85.06c-1.08,0-2.14-.05-3.22-.08C117,154.41,109.08,154.21,101.34,156.1Zm32.09,21,.12-.05c8.11-2.78,14.58-5.29,20.41-7.89,1.65-.74,3.28-1.59,4.87-2.41.67-.38,1.37-.71,2.06-1.06l.38-.19.09-.23h0l.34,0L162,165c.61-.5,1.2-1,1.84-1.49l.06-.09c2.38-2.53,3.48-5.57,4.63-9a6.62,6.62,0,0,1,1-1.77,7.93,7.93,0,0,0,1.39-2.45c.48.72,1,1.42,1.46,2.12a38,38,0,0,1,4.24,7.25c.12.3.18.47.21.57a2.06,2.06,0,0,1-.37.16c-3,1.2-6.2,2.56-9.79,4.19a14.19,14.19,0,0,0-4.41,3.66c-.37.4-.75.82-1.13,1.22l-.17.19c-2.83,4.7-5.39,9.6-7.89,14.38-1,2-2.11,4-3.17,6l-.1.25c-.12.5-.25,1-.38,1.49v.07c-.33,1.17-.64,2.39-.9,3.62-.07.25-.12.33-.12.35h-.19c-3.09-.22-6.24-.32-9.25-.4-8.05-.24-16.37-.48-24.22-3.17a12.76,12.76,0,0,1-1.46-.64,7.07,7.07,0,0,0-4.27-1.05l-2.58.36,1.36,1-1.49.19c-2.27.32-3.74,1.69-5.17,3a16.31,16.31,0,0,1-2,1.65c-2.62,1.73-5.12,3.64-7.55,5.51l0,0c-1.09.84-2.2,1.7-3.33,2.52A72.83,72.83,0,0,1,133.43,177.05Zm36.15,43.37c-4,4-8.07,7.93-12.18,11.62-4.84,4.33-9.62,8.27-14.27,11.9-.12-.1-.24-.18-.37-.27-11.28-7.12-24-10.56-36.24-13.92-2.64-.71-5.31-1.5-7.9-2.27-.36-.12-.73-.22-1.1-.35a16.83,16.83,0,0,0,4.57-1.58,12.18,12.18,0,0,1,3-1.12l.87-.37H112c.73,0,1.51,0,2.32,0a35.21,35.21,0,0,0,5.61-.13c1.79-.23,3.28-.31,4.51.94l.23.22.28.06c7.35,1.65,17.07,3.38,27.19,1.88.56-.08,1.15-.14,1.74-.2l.12,0a6.18,6.18,0,0,0,.71-.06l.26-.08A138.21,138.21,0,0,0,169.58,220.42Zm-88.4-3.93c3.21-2.63,6.41-5.3,9.52-7.89l3.54-2.94c1.07-.85,2.14-1.69,3.21-2.5a52.24,52.24,0,0,0,9.2-8.25,8.5,8.5,0,0,0,.6-1l.16-.29.85-1.47.26.2c8,6,17.31,7.09,25.45,7.6,1.23.1,2.49.15,3.76.22,3,.16,6.06.33,9.3.69-7.66,3.77-15.43,7.05-23,10.25-5.76,2.47-11.73,5-17.5,7.68l-.1.05c-.93.59-1.93,1.08-3,1.63a20.64,20.64,0,0,0-7,4.92l-1,1.1-3.78-1.09c-4.58-1.27-7.54-4.68-10.64-8.26l0-.06a1.89,1.89,0,0,1-.21-.25A2.67,2.67,0,0,1,81.18,216.49Zm-.09,42a2.28,2.28,0,0,1-.41-.37.49.49,0,0,1-.14-.11,74.74,74.74,0,0,0,14.61-.51c1.23-.13,2.47-.24,3.72-.35l.15,0a10,10,0,0,1,1-.22l11.06-2.2,6.16-1.25a62.94,62.94,0,0,0-9.86,7.23l-2.64,3.25-.44.54,0,0c-.15.17-.29.34-.47.58-.59.84-1.24,1.22-3,.8C94.41,264.38,87.14,262.68,81.09,258.49Zm35.22,19.93a2.91,2.91,0,0,1-.88.06h-.05a1.83,1.83,0,0,0-.33,0h-.14c-2,.07-4,0-5.27-1.42a4,4,0,0,1-.66-.93c-.07-.14-.17-.27-.27-.43l-.2-.33h0a3.34,3.34,0,0,0,.82.06c.42,0,.87,0,1.34,0l.72.05.55,0,.57,0c.81,0,1.65.07,2.44.16s1,.42,1.16,1.17a7,7,0,0,1,.15,1.24A1.63,1.63,0,0,1,116.31,278.42Zm10.14-6.33c-.09.16-.19.29-.25.43a4.33,4.33,0,0,1-.66.92c-1.33,1.42-3.25,1.5-5.29,1.43h-.13a1.94,1.94,0,0,0-.33,0h-.05a3.32,3.32,0,0,1-.89-.06s0-.12,0-.38a9.48,9.48,0,0,1,.16-1.25c.17-.74.46-1.05,1.16-1.16s1.63-.13,2.44-.16l.56,0,.55,0,.72,0a12.36,12.36,0,0,1,1.34,0,4.13,4.13,0,0,0,.84-.06h0Zm39.71-17.19c-.35.39-.71.77-1.08,1.13a32.29,32.29,0,0,1-18.15,9.53c-10.36,1.74-21.48,2.32-35.7,1.79-1.19,0-2.4-.08-3.63-.14a4.24,4.24,0,0,1-.81-.09,3,3,0,0,1,.42-.47c.23-.16.46-.34.67-.52a19.12,19.12,0,0,0,1.6-1.5,13.33,13.33,0,0,1,2.76-2.21l.23-.16a32,32,0,0,1,9.89-5.77,61.25,61.25,0,0,1,12.83-3.17,62.21,62.21,0,0,1,11.28-.45h.13a65.09,65.09,0,0,1,8.26-.28H155c1.72,0,3.5,0,5.28-.05,2.91-.13,5.86-.25,8.72-.39A24.26,24.26,0,0,0,166.16,254.9Zm34.73-20.79a61.85,61.85,0,0,1-32.31,11.95h-.18l-.16.07a2.36,2.36,0,0,1-1,.16h-.14a49.59,49.59,0,0,1-9.39.23c4-2.41,7.9-4.94,11.72-7.41l2.23-1.45.07-.05c1.24-1,2.62-2,4-3a62.52,62.52,0,0,0,6.34-5.09c3.75-3.55,7.27-7.69,7.82-13.94,1.54.8,3.1,1.49,4.61,2.16a51.72,51.72,0,0,1,6.41,3.19A14.7,14.7,0,0,1,203,222.5c.33.29.63.57.91.87a5.7,5.7,0,0,1,1.66,3.62C205.71,229.29,204,231.81,200.89,234.11Z"/></g></g></svg>