<?xml version="1.0" encoding="UTF-8"?>
<svg xmlns="http://www.w3.org/2000/svg" xmlns:xlink="http://www.w3.org/1999/xlink" width="150px" height="57px" viewBox="0 0 150 57" version="1.1">
<defs>
<linearGradient id="linear0" gradientUnits="userSpaceOnUse" x1="0" y1="57.52" x2="15.15" y2="57.52" gradientTransform="matrix(0.153566,0,0,0.154089,0,0.0251703)">
<stop offset="0.01" style="stop-color:rgb(69.803922%,43.137255%,17.647059%);stop-opacity:1;"/>
<stop offset="0.04" style="stop-color:rgb(78.823529%,53.333333%,19.607843%);stop-opacity:1;"/>
<stop offset="0.09" style="stop-color:rgb(88.235294%,63.921569%,21.176471%);stop-opacity:1;"/>
<stop offset="0.13" style="stop-color:rgb(94.901961%,71.372549%,22.352941%);stop-opacity:1;"/>
<stop offset="0.18" style="stop-color:rgb(98.823529%,75.686275%,23.137255%);stop-opacity:1;"/>
<stop offset="0.23" style="stop-color:rgb(100%,77.254902%,23.529412%);stop-opacity:1;"/>
<stop offset="0.28" style="stop-color:rgb(98.823529%,70.196078%,20.392157%);stop-opacity:1;"/>
<stop offset="0.36" style="stop-color:rgb(97.647059%,62.745098%,17.254902%);stop-opacity:1;"/>
<stop offset="0.43" style="stop-color:rgb(97.254902%,58.431373%,15.686275%);stop-opacity:1;"/>
<stop offset="0.52" style="stop-color:rgb(96.862745%,56.862745%,14.901961%);stop-opacity:1;"/>
<stop offset="0.8" style="stop-color:rgb(100%,77.254902%,23.529412%);stop-opacity:1;"/>
<stop offset="0.98" style="stop-color:rgb(69.803922%,43.137255%,17.647059%);stop-opacity:1;"/>
</linearGradient>
<linearGradient id="linear1" gradientUnits="userSpaceOnUse" x1="1.24" y1="118.029999" x2="232.199997" y2="118.029999" gradientTransform="matrix(0.153566,0,0,0.154089,0,0.0251703)">
<stop offset="0.01" style="stop-color:rgb(69.803922%,43.137255%,17.647059%);stop-opacity:1;"/>
<stop offset="0.04" style="stop-color:rgb(78.823529%,53.333333%,19.607843%);stop-opacity:1;"/>
<stop offset="0.09" style="stop-color:rgb(88.235294%,63.921569%,21.176471%);stop-opacity:1;"/>
<stop offset="0.13" style="stop-color:rgb(94.901961%,71.372549%,22.352941%);stop-opacity:1;"/>
<stop offset="0.18" style="stop-color:rgb(98.823529%,75.686275%,23.137255%);stop-opacity:1;"/>
<stop offset="0.23" style="stop-color:rgb(100%,77.254902%,23.529412%);stop-opacity:1;"/>
<stop offset="0.28" style="stop-color:rgb(98.823529%,70.196078%,20.392157%);stop-opacity:1;"/>
<stop offset="0.36" style="stop-color:rgb(97.647059%,62.745098%,17.254902%);stop-opacity:1;"/>
<stop offset="0.43" style="stop-color:rgb(97.254902%,58.431373%,15.686275%);stop-opacity:1;"/>
<stop offset="0.52" style="stop-color:rgb(96.862745%,56.862745%,14.901961%);stop-opacity:1;"/>
<stop offset="0.8" style="stop-color:rgb(100%,77.254902%,23.529412%);stop-opacity:1;"/>
<stop offset="0.98" style="stop-color:rgb(69.803922%,43.137255%,17.647059%);stop-opacity:1;"/>
</linearGradient>
<linearGradient id="linear2" gradientUnits="userSpaceOnUse" x1="102.699997" y1="16.52" x2="130.699997" y2="16.52" gradientTransform="matrix(0.153566,0,0,0.154089,0,0.0251703)">
<stop offset="0.01" style="stop-color:rgb(69.803922%,43.137255%,17.647059%);stop-opacity:1;"/>
<stop offset="0.04" style="stop-color:rgb(78.823529%,53.333333%,19.607843%);stop-opacity:1;"/>
<stop offset="0.09" style="stop-color:rgb(88.235294%,63.921569%,21.176471%);stop-opacity:1;"/>
<stop offset="0.13" style="stop-color:rgb(94.901961%,71.372549%,22.352941%);stop-opacity:1;"/>
<stop offset="0.18" style="stop-color:rgb(98.823529%,75.686275%,23.137255%);stop-opacity:1;"/>
<stop offset="0.23" style="stop-color:rgb(100%,77.254902%,23.529412%);stop-opacity:1;"/>
<stop offset="0.28" style="stop-color:rgb(98.823529%,70.196078%,20.392157%);stop-opacity:1;"/>
<stop offset="0.36" style="stop-color:rgb(97.647059%,62.745098%,17.254902%);stop-opacity:1;"/>
<stop offset="0.43" style="stop-color:rgb(97.254902%,58.431373%,15.686275%);stop-opacity:1;"/>
<stop offset="0.52" style="stop-color:rgb(96.862745%,56.862745%,14.901961%);stop-opacity:1;"/>
<stop offset="0.8" style="stop-color:rgb(100%,77.254902%,23.529412%);stop-opacity:1;"/>
<stop offset="0.98" style="stop-color:rgb(69.803922%,43.137255%,17.647059%);stop-opacity:1;"/>
</linearGradient>
<linearGradient id="linear3" gradientUnits="userSpaceOnUse" x1="36.209999" y1="76.660004" x2="80" y2="76.660004" gradientTransform="matrix(0.153566,0,0,0.154089,0,0.0251703)">
<stop offset="0.01" style="stop-color:rgb(69.803922%,43.137255%,17.647059%);stop-opacity:1;"/>
<stop offset="0.04" style="stop-color:rgb(78.823529%,53.333333%,19.607843%);stop-opacity:1;"/>
<stop offset="0.09" style="stop-color:rgb(88.235294%,63.921569%,21.176471%);stop-opacity:1;"/>
<stop offset="0.13" style="stop-color:rgb(94.901961%,71.372549%,22.352941%);stop-opacity:1;"/>
<stop offset="0.18" style="stop-color:rgb(98.823529%,75.686275%,23.137255%);stop-opacity:1;"/>
<stop offset="0.23" style="stop-color:rgb(100%,77.254902%,23.529412%);stop-opacity:1;"/>
<stop offset="0.28" style="stop-color:rgb(98.823529%,70.196078%,20.392157%);stop-opacity:1;"/>
<stop offset="0.36" style="stop-color:rgb(97.647059%,62.745098%,17.254902%);stop-opacity:1;"/>
<stop offset="0.43" style="stop-color:rgb(97.254902%,58.431373%,15.686275%);stop-opacity:1;"/>
<stop offset="0.52" style="stop-color:rgb(96.862745%,56.862745%,14.901961%);stop-opacity:1;"/>
<stop offset="0.8" style="stop-color:rgb(100%,77.254902%,23.529412%);stop-opacity:1;"/>
<stop offset="0.98" style="stop-color:rgb(69.803922%,43.137255%,17.647059%);stop-opacity:1;"/>
</linearGradient>
<linearGradient id="linear4" gradientUnits="userSpaceOnUse" x1="148.210007" y1="74.959999" x2="196.660004" y2="74.959999" gradientTransform="matrix(0.153566,0,0,0.154089,0,0.0251703)">
<stop offset="0.01" style="stop-color:rgb(69.803922%,43.137255%,17.647059%);stop-opacity:1;"/>
<stop offset="0.04" style="stop-color:rgb(78.823529%,53.333333%,19.607843%);stop-opacity:1;"/>
<stop offset="0.09" style="stop-color:rgb(88.235294%,63.921569%,21.176471%);stop-opacity:1;"/>
<stop offset="0.13" style="stop-color:rgb(94.901961%,71.372549%,22.352941%);stop-opacity:1;"/>
<stop offset="0.18" style="stop-color:rgb(98.823529%,75.686275%,23.137255%);stop-opacity:1;"/>
<stop offset="0.23" style="stop-color:rgb(100%,77.254902%,23.529412%);stop-opacity:1;"/>
<stop offset="0.28" style="stop-color:rgb(98.823529%,70.196078%,20.392157%);stop-opacity:1;"/>
<stop offset="0.36" style="stop-color:rgb(97.647059%,62.745098%,17.254902%);stop-opacity:1;"/>
<stop offset="0.43" style="stop-color:rgb(97.254902%,58.431373%,15.686275%);stop-opacity:1;"/>
<stop offset="0.52" style="stop-color:rgb(96.862745%,56.862745%,14.901961%);stop-opacity:1;"/>
<stop offset="0.8" style="stop-color:rgb(100%,77.254902%,23.529412%);stop-opacity:1;"/>
<stop offset="0.98" style="stop-color:rgb(69.803922%,43.137255%,17.647059%);stop-opacity:1;"/>
</linearGradient>
<linearGradient id="linear5" gradientUnits="userSpaceOnUse" x1="49.02" y1="40.09" x2="63.509998" y2="40.09" gradientTransform="matrix(0.153566,0,0,0.154089,0,0.0251703)">
<stop offset="0.01" style="stop-color:rgb(69.803922%,43.137255%,17.647059%);stop-opacity:1;"/>
<stop offset="0.04" style="stop-color:rgb(78.823529%,53.333333%,19.607843%);stop-opacity:1;"/>
<stop offset="0.09" style="stop-color:rgb(88.235294%,63.921569%,21.176471%);stop-opacity:1;"/>
<stop offset="0.13" style="stop-color:rgb(94.901961%,71.372549%,22.352941%);stop-opacity:1;"/>
<stop offset="0.18" style="stop-color:rgb(98.823529%,75.686275%,23.137255%);stop-opacity:1;"/>
<stop offset="0.23" style="stop-color:rgb(100%,77.254902%,23.529412%);stop-opacity:1;"/>
<stop offset="0.28" style="stop-color:rgb(98.823529%,70.196078%,20.392157%);stop-opacity:1;"/>
<stop offset="0.36" style="stop-color:rgb(97.647059%,62.745098%,17.254902%);stop-opacity:1;"/>
<stop offset="0.43" style="stop-color:rgb(97.254902%,58.431373%,15.686275%);stop-opacity:1;"/>
<stop offset="0.52" style="stop-color:rgb(96.862745%,56.862745%,14.901961%);stop-opacity:1;"/>
<stop offset="0.8" style="stop-color:rgb(100%,77.254902%,23.529412%);stop-opacity:1;"/>
<stop offset="0.98" style="stop-color:rgb(69.803922%,43.137255%,17.647059%);stop-opacity:1;"/>
</linearGradient>
<linearGradient id="linear6" gradientUnits="userSpaceOnUse" x1="169.619995" y1="39.450001" x2="184.339996" y2="39.450001" gradientTransform="matrix(0.153566,0,0,0.154089,0,0.0251703)">
<stop offset="0.01" style="stop-color:rgb(69.803922%,43.137255%,17.647059%);stop-opacity:1;"/>
<stop offset="0.04" style="stop-color:rgb(78.823529%,53.333333%,19.607843%);stop-opacity:1;"/>
<stop offset="0.09" style="stop-color:rgb(88.235294%,63.921569%,21.176471%);stop-opacity:1;"/>
<stop offset="0.13" style="stop-color:rgb(94.901961%,71.372549%,22.352941%);stop-opacity:1;"/>
<stop offset="0.18" style="stop-color:rgb(98.823529%,75.686275%,23.137255%);stop-opacity:1;"/>
<stop offset="0.23" style="stop-color:rgb(100%,77.254902%,23.529412%);stop-opacity:1;"/>
<stop offset="0.28" style="stop-color:rgb(98.823529%,70.196078%,20.392157%);stop-opacity:1;"/>
<stop offset="0.36" style="stop-color:rgb(97.647059%,62.745098%,17.254902%);stop-opacity:1;"/>
<stop offset="0.43" style="stop-color:rgb(97.254902%,58.431373%,15.686275%);stop-opacity:1;"/>
<stop offset="0.52" style="stop-color:rgb(96.862745%,56.862745%,14.901961%);stop-opacity:1;"/>
<stop offset="0.8" style="stop-color:rgb(100%,77.254902%,23.529412%);stop-opacity:1;"/>
<stop offset="0.98" style="stop-color:rgb(69.803922%,43.137255%,17.647059%);stop-opacity:1;"/>
</linearGradient>
<linearGradient id="linear7" gradientUnits="userSpaceOnUse" x1="213" y1="60.209999" x2="227.639999" y2="60.209999" gradientTransform="matrix(0.153566,0,0,0.154089,0,0.0251703)">
<stop offset="0.01" style="stop-color:rgb(69.803922%,43.137255%,17.647059%);stop-opacity:1;"/>
<stop offset="0.04" style="stop-color:rgb(78.823529%,53.333333%,19.607843%);stop-opacity:1;"/>
<stop offset="0.09" style="stop-color:rgb(88.235294%,63.921569%,21.176471%);stop-opacity:1;"/>
<stop offset="0.13" style="stop-color:rgb(94.901961%,71.372549%,22.352941%);stop-opacity:1;"/>
<stop offset="0.18" style="stop-color:rgb(98.823529%,75.686275%,23.137255%);stop-opacity:1;"/>
<stop offset="0.23" style="stop-color:rgb(100%,77.254902%,23.529412%);stop-opacity:1;"/>
<stop offset="0.28" style="stop-color:rgb(98.823529%,70.196078%,20.392157%);stop-opacity:1;"/>
<stop offset="0.36" style="stop-color:rgb(97.647059%,62.745098%,17.254902%);stop-opacity:1;"/>
<stop offset="0.43" style="stop-color:rgb(97.254902%,58.431373%,15.686275%);stop-opacity:1;"/>
<stop offset="0.52" style="stop-color:rgb(96.862745%,56.862745%,14.901961%);stop-opacity:1;"/>
<stop offset="0.8" style="stop-color:rgb(100%,77.254902%,23.529412%);stop-opacity:1;"/>
<stop offset="0.98" style="stop-color:rgb(69.803922%,43.137255%,17.647059%);stop-opacity:1;"/>
</linearGradient>
<linearGradient id="linear8" gradientUnits="userSpaceOnUse" x1="20.709999" y1="252.25" x2="216.850006" y2="252.25" gradientTransform="matrix(0.153566,0,0,0.154089,0,0.0251703)">
<stop offset="0.01" style="stop-color:rgb(69.803922%,43.137255%,17.647059%);stop-opacity:1;"/>
<stop offset="0.04" style="stop-color:rgb(78.823529%,53.333333%,19.607843%);stop-opacity:1;"/>
<stop offset="0.09" style="stop-color:rgb(88.235294%,63.921569%,21.176471%);stop-opacity:1;"/>
<stop offset="0.13" style="stop-color:rgb(94.901961%,71.372549%,22.352941%);stop-opacity:1;"/>
<stop offset="0.18" style="stop-color:rgb(98.823529%,75.686275%,23.137255%);stop-opacity:1;"/>
<stop offset="0.23" style="stop-color:rgb(100%,77.254902%,23.529412%);stop-opacity:1;"/>
<stop offset="0.28" style="stop-color:rgb(98.823529%,70.196078%,20.392157%);stop-opacity:1;"/>
<stop offset="0.36" style="stop-color:rgb(97.647059%,62.745098%,17.254902%);stop-opacity:1;"/>
<stop offset="0.43" style="stop-color:rgb(97.254902%,58.431373%,15.686275%);stop-opacity:1;"/>
<stop offset="0.52" style="stop-color:rgb(96.862745%,56.862745%,14.901961%);stop-opacity:1;"/>
<stop offset="0.8" style="stop-color:rgb(100%,77.254902%,23.529412%);stop-opacity:1;"/>
<stop offset="0.98" style="stop-color:rgb(69.803922%,43.137255%,17.647059%);stop-opacity:1;"/>
</linearGradient>
<linearGradient id="linear9" gradientUnits="userSpaceOnUse" x1="2918.639893" y1="247.949997" x2="3169.26001" y2="247.949997" gradientTransform="matrix(0.153566,0,0,0.154089,-340.301798,0.0251703)">
<stop offset="0.01" style="stop-color:rgb(69.803922%,43.137255%,17.647059%);stop-opacity:1;"/>
<stop offset="0.04" style="stop-color:rgb(78.823529%,53.333333%,19.607843%);stop-opacity:1;"/>
<stop offset="0.09" style="stop-color:rgb(88.235294%,63.921569%,21.176471%);stop-opacity:1;"/>
<stop offset="0.13" style="stop-color:rgb(94.901961%,71.372549%,22.352941%);stop-opacity:1;"/>
<stop offset="0.18" style="stop-color:rgb(98.823529%,75.686275%,23.137255%);stop-opacity:1;"/>
<stop offset="0.23" style="stop-color:rgb(100%,77.254902%,23.529412%);stop-opacity:1;"/>
<stop offset="0.28" style="stop-color:rgb(98.823529%,70.196078%,20.392157%);stop-opacity:1;"/>
<stop offset="0.36" style="stop-color:rgb(97.647059%,62.745098%,17.254902%);stop-opacity:1;"/>
<stop offset="0.43" style="stop-color:rgb(97.254902%,58.431373%,15.686275%);stop-opacity:1;"/>
<stop offset="0.52" style="stop-color:rgb(96.862745%,56.862745%,14.901961%);stop-opacity:1;"/>
<stop offset="0.8" style="stop-color:rgb(100%,77.254902%,23.529412%);stop-opacity:1;"/>
<stop offset="0.98" style="stop-color:rgb(69.803922%,43.137255%,17.647059%);stop-opacity:1;"/>
</linearGradient>
<linearGradient id="linear10" gradientUnits="userSpaceOnUse" x1="2918.639893" y1="247.949997" x2="3169.26001" y2="247.949997" gradientTransform="matrix(0.153566,0,0,0.154089,-340.301798,0.0251703)">
<stop offset="0.01" style="stop-color:rgb(69.803922%,43.137255%,17.647059%);stop-opacity:1;"/>
<stop offset="0.04" style="stop-color:rgb(78.823529%,53.333333%,19.607843%);stop-opacity:1;"/>
<stop offset="0.09" style="stop-color:rgb(88.235294%,63.921569%,21.176471%);stop-opacity:1;"/>
<stop offset="0.13" style="stop-color:rgb(94.901961%,71.372549%,22.352941%);stop-opacity:1;"/>
<stop offset="0.18" style="stop-color:rgb(98.823529%,75.686275%,23.137255%);stop-opacity:1;"/>
<stop offset="0.23" style="stop-color:rgb(100%,77.254902%,23.529412%);stop-opacity:1;"/>
<stop offset="0.28" style="stop-color:rgb(98.823529%,70.196078%,20.392157%);stop-opacity:1;"/>
<stop offset="0.36" style="stop-color:rgb(97.647059%,62.745098%,17.254902%);stop-opacity:1;"/>
<stop offset="0.43" style="stop-color:rgb(97.254902%,58.431373%,15.686275%);stop-opacity:1;"/>
<stop offset="0.52" style="stop-color:rgb(96.862745%,56.862745%,14.901961%);stop-opacity:1;"/>
<stop offset="0.8" style="stop-color:rgb(100%,77.254902%,23.529412%);stop-opacity:1;"/>
<stop offset="0.98" style="stop-color:rgb(69.803922%,43.137255%,17.647059%);stop-opacity:1;"/>
</linearGradient>
<linearGradient id="linear11" gradientUnits="userSpaceOnUse" x1="2918.639893" y1="247.949997" x2="3169.26001" y2="247.949997" gradientTransform="matrix(0.153566,0,0,0.154089,-340.301798,0.0251703)">
<stop offset="0.01" style="stop-color:rgb(69.803922%,43.137255%,17.647059%);stop-opacity:1;"/>
<stop offset="0.04" style="stop-color:rgb(78.823529%,53.333333%,19.607843%);stop-opacity:1;"/>
<stop offset="0.09" style="stop-color:rgb(88.235294%,63.921569%,21.176471%);stop-opacity:1;"/>
<stop offset="0.13" style="stop-color:rgb(94.901961%,71.372549%,22.352941%);stop-opacity:1;"/>
<stop offset="0.18" style="stop-color:rgb(98.823529%,75.686275%,23.137255%);stop-opacity:1;"/>
<stop offset="0.23" style="stop-color:rgb(100%,77.254902%,23.529412%);stop-opacity:1;"/>
<stop offset="0.28" style="stop-color:rgb(98.823529%,70.196078%,20.392157%);stop-opacity:1;"/>
<stop offset="0.36" style="stop-color:rgb(97.647059%,62.745098%,17.254902%);stop-opacity:1;"/>
<stop offset="0.43" style="stop-color:rgb(97.254902%,58.431373%,15.686275%);stop-opacity:1;"/>
<stop offset="0.52" style="stop-color:rgb(96.862745%,56.862745%,14.901961%);stop-opacity:1;"/>
<stop offset="0.8" style="stop-color:rgb(100%,77.254902%,23.529412%);stop-opacity:1;"/>
<stop offset="0.98" style="stop-color:rgb(69.803922%,43.137255%,17.647059%);stop-opacity:1;"/>
</linearGradient>
<linearGradient id="linear12" gradientUnits="userSpaceOnUse" x1="2918.639893" y1="247.949997" x2="3169.26001" y2="247.949997" gradientTransform="matrix(0.153566,0,0,0.154089,-340.301798,0.0251703)">
<stop offset="0.01" style="stop-color:rgb(69.803922%,43.137255%,17.647059%);stop-opacity:1;"/>
<stop offset="0.04" style="stop-color:rgb(78.823529%,53.333333%,19.607843%);stop-opacity:1;"/>
<stop offset="0.09" style="stop-color:rgb(88.235294%,63.921569%,21.176471%);stop-opacity:1;"/>
<stop offset="0.13" style="stop-color:rgb(94.901961%,71.372549%,22.352941%);stop-opacity:1;"/>
<stop offset="0.18" style="stop-color:rgb(98.823529%,75.686275%,23.137255%);stop-opacity:1;"/>
<stop offset="0.23" style="stop-color:rgb(100%,77.254902%,23.529412%);stop-opacity:1;"/>
<stop offset="0.28" style="stop-color:rgb(98.823529%,70.196078%,20.392157%);stop-opacity:1;"/>
<stop offset="0.36" style="stop-color:rgb(97.647059%,62.745098%,17.254902%);stop-opacity:1;"/>
<stop offset="0.43" style="stop-color:rgb(97.254902%,58.431373%,15.686275%);stop-opacity:1;"/>
<stop offset="0.52" style="stop-color:rgb(96.862745%,56.862745%,14.901961%);stop-opacity:1;"/>
<stop offset="0.8" style="stop-color:rgb(100%,77.254902%,23.529412%);stop-opacity:1;"/>
<stop offset="0.98" style="stop-color:rgb(69.803922%,43.137255%,17.647059%);stop-opacity:1;"/>
</linearGradient>
<linearGradient id="linear13" gradientUnits="userSpaceOnUse" x1="2918.639893" y1="247.949997" x2="3169.26001" y2="247.949997" gradientTransform="matrix(0.153566,0,0,0.154089,-340.301798,0.0251703)">
<stop offset="0.01" style="stop-color:rgb(69.803922%,43.137255%,17.647059%);stop-opacity:1;"/>
<stop offset="0.04" style="stop-color:rgb(78.823529%,53.333333%,19.607843%);stop-opacity:1;"/>
<stop offset="0.09" style="stop-color:rgb(88.235294%,63.921569%,21.176471%);stop-opacity:1;"/>
<stop offset="0.13" style="stop-color:rgb(94.901961%,71.372549%,22.352941%);stop-opacity:1;"/>
<stop offset="0.18" style="stop-color:rgb(98.823529%,75.686275%,23.137255%);stop-opacity:1;"/>
<stop offset="0.23" style="stop-color:rgb(100%,77.254902%,23.529412%);stop-opacity:1;"/>
<stop offset="0.28" style="stop-color:rgb(98.823529%,70.196078%,20.392157%);stop-opacity:1;"/>
<stop offset="0.36" style="stop-color:rgb(97.647059%,62.745098%,17.254902%);stop-opacity:1;"/>
<stop offset="0.43" style="stop-color:rgb(97.254902%,58.431373%,15.686275%);stop-opacity:1;"/>
<stop offset="0.52" style="stop-color:rgb(96.862745%,56.862745%,14.901961%);stop-opacity:1;"/>
<stop offset="0.8" style="stop-color:rgb(100%,77.254902%,23.529412%);stop-opacity:1;"/>
<stop offset="0.98" style="stop-color:rgb(69.803922%,43.137255%,17.647059%);stop-opacity:1;"/>
</linearGradient>
<linearGradient id="linear14" gradientUnits="userSpaceOnUse" x1="2918.639893" y1="247.949997" x2="3169.26001" y2="247.949997" gradientTransform="matrix(0.153566,0,0,0.154089,-340.301798,0.0251703)">
<stop offset="0.01" style="stop-color:rgb(69.803922%,43.137255%,17.647059%);stop-opacity:1;"/>
<stop offset="0.04" style="stop-color:rgb(78.823529%,53.333333%,19.607843%);stop-opacity:1;"/>
<stop offset="0.09" style="stop-color:rgb(88.235294%,63.921569%,21.176471%);stop-opacity:1;"/>
<stop offset="0.13" style="stop-color:rgb(94.901961%,71.372549%,22.352941%);stop-opacity:1;"/>
<stop offset="0.18" style="stop-color:rgb(98.823529%,75.686275%,23.137255%);stop-opacity:1;"/>
<stop offset="0.23" style="stop-color:rgb(100%,77.254902%,23.529412%);stop-opacity:1;"/>
<stop offset="0.28" style="stop-color:rgb(98.823529%,70.196078%,20.392157%);stop-opacity:1;"/>
<stop offset="0.36" style="stop-color:rgb(97.647059%,62.745098%,17.254902%);stop-opacity:1;"/>
<stop offset="0.43" style="stop-color:rgb(97.254902%,58.431373%,15.686275%);stop-opacity:1;"/>
<stop offset="0.52" style="stop-color:rgb(96.862745%,56.862745%,14.901961%);stop-opacity:1;"/>
<stop offset="0.8" style="stop-color:rgb(100%,77.254902%,23.529412%);stop-opacity:1;"/>
<stop offset="0.98" style="stop-color:rgb(69.803922%,43.137255%,17.647059%);stop-opacity:1;"/>
</linearGradient>
<linearGradient id="linear15" gradientUnits="userSpaceOnUse" x1="2918.639893" y1="247.949997" x2="3169.26001" y2="247.949997" gradientTransform="matrix(0.153566,0,0,0.154089,-340.301798,0.0251703)">
<stop offset="0.01" style="stop-color:rgb(69.803922%,43.137255%,17.647059%);stop-opacity:1;"/>
<stop offset="0.04" style="stop-color:rgb(78.823529%,53.333333%,19.607843%);stop-opacity:1;"/>
<stop offset="0.09" style="stop-color:rgb(88.235294%,63.921569%,21.176471%);stop-opacity:1;"/>
<stop offset="0.13" style="stop-color:rgb(94.901961%,71.372549%,22.352941%);stop-opacity:1;"/>
<stop offset="0.18" style="stop-color:rgb(98.823529%,75.686275%,23.137255%);stop-opacity:1;"/>
<stop offset="0.23" style="stop-color:rgb(100%,77.254902%,23.529412%);stop-opacity:1;"/>
<stop offset="0.28" style="stop-color:rgb(98.823529%,70.196078%,20.392157%);stop-opacity:1;"/>
<stop offset="0.36" style="stop-color:rgb(97.647059%,62.745098%,17.254902%);stop-opacity:1;"/>
<stop offset="0.43" style="stop-color:rgb(97.254902%,58.431373%,15.686275%);stop-opacity:1;"/>
<stop offset="0.52" style="stop-color:rgb(96.862745%,56.862745%,14.901961%);stop-opacity:1;"/>
<stop offset="0.8" style="stop-color:rgb(100%,77.254902%,23.529412%);stop-opacity:1;"/>
<stop offset="0.98" style="stop-color:rgb(69.803922%,43.137255%,17.647059%);stop-opacity:1;"/>
</linearGradient>
<linearGradient id="linear16" gradientUnits="userSpaceOnUse" x1="2918.639893" y1="247.949997" x2="3169.26001" y2="247.949997" gradientTransform="matrix(0.153566,0,0,0.154089,-340.301798,0.0251703)">
<stop offset="0.01" style="stop-color:rgb(69.803922%,43.137255%,17.647059%);stop-opacity:1;"/>
<stop offset="0.04" style="stop-color:rgb(78.823529%,53.333333%,19.607843%);stop-opacity:1;"/>
<stop offset="0.09" style="stop-color:rgb(88.235294%,63.921569%,21.176471%);stop-opacity:1;"/>
<stop offset="0.13" style="stop-color:rgb(94.901961%,71.372549%,22.352941%);stop-opacity:1;"/>
<stop offset="0.18" style="stop-color:rgb(98.823529%,75.686275%,23.137255%);stop-opacity:1;"/>
<stop offset="0.23" style="stop-color:rgb(100%,77.254902%,23.529412%);stop-opacity:1;"/>
<stop offset="0.28" style="stop-color:rgb(98.823529%,70.196078%,20.392157%);stop-opacity:1;"/>
<stop offset="0.36" style="stop-color:rgb(97.647059%,62.745098%,17.254902%);stop-opacity:1;"/>
<stop offset="0.43" style="stop-color:rgb(97.254902%,58.431373%,15.686275%);stop-opacity:1;"/>
<stop offset="0.52" style="stop-color:rgb(96.862745%,56.862745%,14.901961%);stop-opacity:1;"/>
<stop offset="0.8" style="stop-color:rgb(100%,77.254902%,23.529412%);stop-opacity:1;"/>
<stop offset="0.98" style="stop-color:rgb(69.803922%,43.137255%,17.647059%);stop-opacity:1;"/>
</linearGradient>
<linearGradient id="linear17" gradientUnits="userSpaceOnUse" x1="2487.72998" y1="176.100006" x2="3192.530029" y2="176.100006" gradientTransform="matrix(0.153566,0,0,0.154089,-340.301798,0.0251703)">
<stop offset="0.01" style="stop-color:rgb(69.803922%,43.137255%,17.647059%);stop-opacity:1;"/>
<stop offset="0.04" style="stop-color:rgb(78.823529%,53.333333%,19.607843%);stop-opacity:1;"/>
<stop offset="0.09" style="stop-color:rgb(88.235294%,63.921569%,21.176471%);stop-opacity:1;"/>
<stop offset="0.13" style="stop-color:rgb(94.901961%,71.372549%,22.352941%);stop-opacity:1;"/>
<stop offset="0.18" style="stop-color:rgb(98.823529%,75.686275%,23.137255%);stop-opacity:1;"/>
<stop offset="0.23" style="stop-color:rgb(100%,77.254902%,23.529412%);stop-opacity:1;"/>
<stop offset="0.28" style="stop-color:rgb(98.823529%,70.196078%,20.392157%);stop-opacity:1;"/>
<stop offset="0.36" style="stop-color:rgb(97.647059%,62.745098%,17.254902%);stop-opacity:1;"/>
<stop offset="0.43" style="stop-color:rgb(97.254902%,58.431373%,15.686275%);stop-opacity:1;"/>
<stop offset="0.52" style="stop-color:rgb(96.862745%,56.862745%,14.901961%);stop-opacity:1;"/>
<stop offset="0.8" style="stop-color:rgb(100%,77.254902%,23.529412%);stop-opacity:1;"/>
<stop offset="0.98" style="stop-color:rgb(69.803922%,43.137255%,17.647059%);stop-opacity:1;"/>
</linearGradient>
<linearGradient id="linear18" gradientUnits="userSpaceOnUse" x1="2487.72998" y1="176.100006" x2="3192.530029" y2="176.100006" gradientTransform="matrix(0.153566,0,0,0.154089,-340.301798,0.0251703)">
<stop offset="0.01" style="stop-color:rgb(69.803922%,43.137255%,17.647059%);stop-opacity:1;"/>
<stop offset="0.04" style="stop-color:rgb(78.823529%,53.333333%,19.607843%);stop-opacity:1;"/>
<stop offset="0.09" style="stop-color:rgb(88.235294%,63.921569%,21.176471%);stop-opacity:1;"/>
<stop offset="0.13" style="stop-color:rgb(94.901961%,71.372549%,22.352941%);stop-opacity:1;"/>
<stop offset="0.18" style="stop-color:rgb(98.823529%,75.686275%,23.137255%);stop-opacity:1;"/>
<stop offset="0.23" style="stop-color:rgb(100%,77.254902%,23.529412%);stop-opacity:1;"/>
<stop offset="0.28" style="stop-color:rgb(98.823529%,70.196078%,20.392157%);stop-opacity:1;"/>
<stop offset="0.36" style="stop-color:rgb(97.647059%,62.745098%,17.254902%);stop-opacity:1;"/>
<stop offset="0.43" style="stop-color:rgb(97.254902%,58.431373%,15.686275%);stop-opacity:1;"/>
<stop offset="0.52" style="stop-color:rgb(96.862745%,56.862745%,14.901961%);stop-opacity:1;"/>
<stop offset="0.8" style="stop-color:rgb(100%,77.254902%,23.529412%);stop-opacity:1;"/>
<stop offset="0.98" style="stop-color:rgb(69.803922%,43.137255%,17.647059%);stop-opacity:1;"/>
</linearGradient>
<linearGradient id="linear19" gradientUnits="userSpaceOnUse" x1="2487.72998" y1="176.100006" x2="3192.530029" y2="176.100006" gradientTransform="matrix(0.153566,0,0,0.154089,-340.301798,0.0251703)">
<stop offset="0.01" style="stop-color:rgb(69.803922%,43.137255%,17.647059%);stop-opacity:1;"/>
<stop offset="0.04" style="stop-color:rgb(78.823529%,53.333333%,19.607843%);stop-opacity:1;"/>
<stop offset="0.09" style="stop-color:rgb(88.235294%,63.921569%,21.176471%);stop-opacity:1;"/>
<stop offset="0.13" style="stop-color:rgb(94.901961%,71.372549%,22.352941%);stop-opacity:1;"/>
<stop offset="0.18" style="stop-color:rgb(98.823529%,75.686275%,23.137255%);stop-opacity:1;"/>
<stop offset="0.23" style="stop-color:rgb(100%,77.254902%,23.529412%);stop-opacity:1;"/>
<stop offset="0.28" style="stop-color:rgb(98.823529%,70.196078%,20.392157%);stop-opacity:1;"/>
<stop offset="0.36" style="stop-color:rgb(97.647059%,62.745098%,17.254902%);stop-opacity:1;"/>
<stop offset="0.43" style="stop-color:rgb(97.254902%,58.431373%,15.686275%);stop-opacity:1;"/>
<stop offset="0.52" style="stop-color:rgb(96.862745%,56.862745%,14.901961%);stop-opacity:1;"/>
<stop offset="0.8" style="stop-color:rgb(100%,77.254902%,23.529412%);stop-opacity:1;"/>
<stop offset="0.98" style="stop-color:rgb(69.803922%,43.137255%,17.647059%);stop-opacity:1;"/>
</linearGradient>
<linearGradient id="linear20" gradientUnits="userSpaceOnUse" x1="2487.72998" y1="176.100006" x2="3192.530029" y2="176.100006" gradientTransform="matrix(0.153566,0,0,0.154089,-340.301798,0.0251703)">
<stop offset="0.01" style="stop-color:rgb(69.803922%,43.137255%,17.647059%);stop-opacity:1;"/>
<stop offset="0.04" style="stop-color:rgb(78.823529%,53.333333%,19.607843%);stop-opacity:1;"/>
<stop offset="0.09" style="stop-color:rgb(88.235294%,63.921569%,21.176471%);stop-opacity:1;"/>
<stop offset="0.13" style="stop-color:rgb(94.901961%,71.372549%,22.352941%);stop-opacity:1;"/>
<stop offset="0.18" style="stop-color:rgb(98.823529%,75.686275%,23.137255%);stop-opacity:1;"/>
<stop offset="0.23" style="stop-color:rgb(100%,77.254902%,23.529412%);stop-opacity:1;"/>
<stop offset="0.28" style="stop-color:rgb(98.823529%,70.196078%,20.392157%);stop-opacity:1;"/>
<stop offset="0.36" style="stop-color:rgb(97.647059%,62.745098%,17.254902%);stop-opacity:1;"/>
<stop offset="0.43" style="stop-color:rgb(97.254902%,58.431373%,15.686275%);stop-opacity:1;"/>
<stop offset="0.52" style="stop-color:rgb(96.862745%,56.862745%,14.901961%);stop-opacity:1;"/>
<stop offset="0.8" style="stop-color:rgb(100%,77.254902%,23.529412%);stop-opacity:1;"/>
<stop offset="0.98" style="stop-color:rgb(69.803922%,43.137255%,17.647059%);stop-opacity:1;"/>
</linearGradient>
<linearGradient id="linear21" gradientUnits="userSpaceOnUse" x1="2487.72998" y1="176.100006" x2="3192.530029" y2="176.100006" gradientTransform="matrix(0.153566,0,0,0.154089,-340.301798,0.0251703)">
<stop offset="0.01" style="stop-color:rgb(69.803922%,43.137255%,17.647059%);stop-opacity:1;"/>
<stop offset="0.04" style="stop-color:rgb(78.823529%,53.333333%,19.607843%);stop-opacity:1;"/>
<stop offset="0.09" style="stop-color:rgb(88.235294%,63.921569%,21.176471%);stop-opacity:1;"/>
<stop offset="0.13" style="stop-color:rgb(94.901961%,71.372549%,22.352941%);stop-opacity:1;"/>
<stop offset="0.18" style="stop-color:rgb(98.823529%,75.686275%,23.137255%);stop-opacity:1;"/>
<stop offset="0.23" style="stop-color:rgb(100%,77.254902%,23.529412%);stop-opacity:1;"/>
<stop offset="0.28" style="stop-color:rgb(98.823529%,70.196078%,20.392157%);stop-opacity:1;"/>
<stop offset="0.36" style="stop-color:rgb(97.647059%,62.745098%,17.254902%);stop-opacity:1;"/>
<stop offset="0.43" style="stop-color:rgb(97.254902%,58.431373%,15.686275%);stop-opacity:1;"/>
<stop offset="0.52" style="stop-color:rgb(96.862745%,56.862745%,14.901961%);stop-opacity:1;"/>
<stop offset="0.8" style="stop-color:rgb(100%,77.254902%,23.529412%);stop-opacity:1;"/>
<stop offset="0.98" style="stop-color:rgb(69.803922%,43.137255%,17.647059%);stop-opacity:1;"/>
</linearGradient>
<linearGradient id="linear22" gradientUnits="userSpaceOnUse" x1="2487.72998" y1="176.100006" x2="3192.530029" y2="176.100006" gradientTransform="matrix(0.153566,0,0,0.154089,-340.301798,0.0251703)">
<stop offset="0.01" style="stop-color:rgb(69.803922%,43.137255%,17.647059%);stop-opacity:1;"/>
<stop offset="0.04" style="stop-color:rgb(78.823529%,53.333333%,19.607843%);stop-opacity:1;"/>
<stop offset="0.09" style="stop-color:rgb(88.235294%,63.921569%,21.176471%);stop-opacity:1;"/>
<stop offset="0.13" style="stop-color:rgb(94.901961%,71.372549%,22.352941%);stop-opacity:1;"/>
<stop offset="0.18" style="stop-color:rgb(98.823529%,75.686275%,23.137255%);stop-opacity:1;"/>
<stop offset="0.23" style="stop-color:rgb(100%,77.254902%,23.529412%);stop-opacity:1;"/>
<stop offset="0.28" style="stop-color:rgb(98.823529%,70.196078%,20.392157%);stop-opacity:1;"/>
<stop offset="0.36" style="stop-color:rgb(97.647059%,62.745098%,17.254902%);stop-opacity:1;"/>
<stop offset="0.43" style="stop-color:rgb(97.254902%,58.431373%,15.686275%);stop-opacity:1;"/>
<stop offset="0.52" style="stop-color:rgb(96.862745%,56.862745%,14.901961%);stop-opacity:1;"/>
<stop offset="0.8" style="stop-color:rgb(100%,77.254902%,23.529412%);stop-opacity:1;"/>
<stop offset="0.98" style="stop-color:rgb(69.803922%,43.137255%,17.647059%);stop-opacity:1;"/>
</linearGradient>
<linearGradient id="linear23" gradientUnits="userSpaceOnUse" x1="2487.72998" y1="176.100006" x2="3192.530029" y2="176.100006" gradientTransform="matrix(0.153566,0,0,0.154089,-340.301798,0.0251703)">
<stop offset="0.01" style="stop-color:rgb(69.803922%,43.137255%,17.647059%);stop-opacity:1;"/>
<stop offset="0.04" style="stop-color:rgb(78.823529%,53.333333%,19.607843%);stop-opacity:1;"/>
<stop offset="0.09" style="stop-color:rgb(88.235294%,63.921569%,21.176471%);stop-opacity:1;"/>
<stop offset="0.13" style="stop-color:rgb(94.901961%,71.372549%,22.352941%);stop-opacity:1;"/>
<stop offset="0.18" style="stop-color:rgb(98.823529%,75.686275%,23.137255%);stop-opacity:1;"/>
<stop offset="0.23" style="stop-color:rgb(100%,77.254902%,23.529412%);stop-opacity:1;"/>
<stop offset="0.28" style="stop-color:rgb(98.823529%,70.196078%,20.392157%);stop-opacity:1;"/>
<stop offset="0.36" style="stop-color:rgb(97.647059%,62.745098%,17.254902%);stop-opacity:1;"/>
<stop offset="0.43" style="stop-color:rgb(97.254902%,58.431373%,15.686275%);stop-opacity:1;"/>
<stop offset="0.52" style="stop-color:rgb(96.862745%,56.862745%,14.901961%);stop-opacity:1;"/>
<stop offset="0.8" style="stop-color:rgb(100%,77.254902%,23.529412%);stop-opacity:1;"/>
<stop offset="0.98" style="stop-color:rgb(69.803922%,43.137255%,17.647059%);stop-opacity:1;"/>
</linearGradient>
<linearGradient id="linear24" gradientUnits="userSpaceOnUse" x1="2487.72998" y1="176.100006" x2="3192.530029" y2="176.100006" gradientTransform="matrix(0.153566,0,0,0.154089,-340.301798,0.0251703)">
<stop offset="0.01" style="stop-color:rgb(69.803922%,43.137255%,17.647059%);stop-opacity:1;"/>
<stop offset="0.04" style="stop-color:rgb(78.823529%,53.333333%,19.607843%);stop-opacity:1;"/>
<stop offset="0.09" style="stop-color:rgb(88.235294%,63.921569%,21.176471%);stop-opacity:1;"/>
<stop offset="0.13" style="stop-color:rgb(94.901961%,71.372549%,22.352941%);stop-opacity:1;"/>
<stop offset="0.18" style="stop-color:rgb(98.823529%,75.686275%,23.137255%);stop-opacity:1;"/>
<stop offset="0.23" style="stop-color:rgb(100%,77.254902%,23.529412%);stop-opacity:1;"/>
<stop offset="0.28" style="stop-color:rgb(98.823529%,70.196078%,20.392157%);stop-opacity:1;"/>
<stop offset="0.36" style="stop-color:rgb(97.647059%,62.745098%,17.254902%);stop-opacity:1;"/>
<stop offset="0.43" style="stop-color:rgb(97.254902%,58.431373%,15.686275%);stop-opacity:1;"/>
<stop offset="0.52" style="stop-color:rgb(96.862745%,56.862745%,14.901961%);stop-opacity:1;"/>
<stop offset="0.8" style="stop-color:rgb(100%,77.254902%,23.529412%);stop-opacity:1;"/>
<stop offset="0.98" style="stop-color:rgb(69.803922%,43.137255%,17.647059%);stop-opacity:1;"/>
</linearGradient>
<linearGradient id="linear25" gradientUnits="userSpaceOnUse" x1="2487.72998" y1="176.100006" x2="3192.530029" y2="176.100006" gradientTransform="matrix(0.153566,0,0,0.154089,-340.301798,0.0251703)">
<stop offset="0.01" style="stop-color:rgb(69.803922%,43.137255%,17.647059%);stop-opacity:1;"/>
<stop offset="0.04" style="stop-color:rgb(78.823529%,53.333333%,19.607843%);stop-opacity:1;"/>
<stop offset="0.09" style="stop-color:rgb(88.235294%,63.921569%,21.176471%);stop-opacity:1;"/>
<stop offset="0.13" style="stop-color:rgb(94.901961%,71.372549%,22.352941%);stop-opacity:1;"/>
<stop offset="0.18" style="stop-color:rgb(98.823529%,75.686275%,23.137255%);stop-opacity:1;"/>
<stop offset="0.23" style="stop-color:rgb(100%,77.254902%,23.529412%);stop-opacity:1;"/>
<stop offset="0.28" style="stop-color:rgb(98.823529%,70.196078%,20.392157%);stop-opacity:1;"/>
<stop offset="0.36" style="stop-color:rgb(97.647059%,62.745098%,17.254902%);stop-opacity:1;"/>
<stop offset="0.43" style="stop-color:rgb(97.254902%,58.431373%,15.686275%);stop-opacity:1;"/>
<stop offset="0.52" style="stop-color:rgb(96.862745%,56.862745%,14.901961%);stop-opacity:1;"/>
<stop offset="0.8" style="stop-color:rgb(100%,77.254902%,23.529412%);stop-opacity:1;"/>
<stop offset="0.98" style="stop-color:rgb(69.803922%,43.137255%,17.647059%);stop-opacity:1;"/>
</linearGradient>
<linearGradient id="linear26" gradientUnits="userSpaceOnUse" x1="2487.72998" y1="176.100006" x2="3192.530029" y2="176.100006" gradientTransform="matrix(0.153566,0,0,0.154089,-340.301798,0.0251703)">
<stop offset="0.01" style="stop-color:rgb(69.803922%,43.137255%,17.647059%);stop-opacity:1;"/>
<stop offset="0.04" style="stop-color:rgb(78.823529%,53.333333%,19.607843%);stop-opacity:1;"/>
<stop offset="0.09" style="stop-color:rgb(88.235294%,63.921569%,21.176471%);stop-opacity:1;"/>
<stop offset="0.13" style="stop-color:rgb(94.901961%,71.372549%,22.352941%);stop-opacity:1;"/>
<stop offset="0.18" style="stop-color:rgb(98.823529%,75.686275%,23.137255%);stop-opacity:1;"/>
<stop offset="0.23" style="stop-color:rgb(100%,77.254902%,23.529412%);stop-opacity:1;"/>
<stop offset="0.28" style="stop-color:rgb(98.823529%,70.196078%,20.392157%);stop-opacity:1;"/>
<stop offset="0.36" style="stop-color:rgb(97.647059%,62.745098%,17.254902%);stop-opacity:1;"/>
<stop offset="0.43" style="stop-color:rgb(97.254902%,58.431373%,15.686275%);stop-opacity:1;"/>
<stop offset="0.52" style="stop-color:rgb(96.862745%,56.862745%,14.901961%);stop-opacity:1;"/>
<stop offset="0.8" style="stop-color:rgb(100%,77.254902%,23.529412%);stop-opacity:1;"/>
<stop offset="0.98" style="stop-color:rgb(69.803922%,43.137255%,17.647059%);stop-opacity:1;"/>
</linearGradient>
<linearGradient id="linear27" gradientUnits="userSpaceOnUse" x1="2487.72998" y1="176.100006" x2="3192.530029" y2="176.100006" gradientTransform="matrix(1,0,0,1,-2216,0)">
<stop offset="0.01" style="stop-color:rgb(69.803922%,43.137255%,17.647059%);stop-opacity:1;"/>
<stop offset="0.04" style="stop-color:rgb(78.823529%,53.333333%,19.607843%);stop-opacity:1;"/>
<stop offset="0.09" style="stop-color:rgb(88.235294%,63.921569%,21.176471%);stop-opacity:1;"/>
<stop offset="0.13" style="stop-color:rgb(94.901961%,71.372549%,22.352941%);stop-opacity:1;"/>
<stop offset="0.18" style="stop-color:rgb(98.823529%,75.686275%,23.137255%);stop-opacity:1;"/>
<stop offset="0.23" style="stop-color:rgb(100%,77.254902%,23.529412%);stop-opacity:1;"/>
<stop offset="0.28" style="stop-color:rgb(98.823529%,70.196078%,20.392157%);stop-opacity:1;"/>
<stop offset="0.36" style="stop-color:rgb(97.647059%,62.745098%,17.254902%);stop-opacity:1;"/>
<stop offset="0.43" style="stop-color:rgb(97.254902%,58.431373%,15.686275%);stop-opacity:1;"/>
<stop offset="0.52" style="stop-color:rgb(96.862745%,56.862745%,14.901961%);stop-opacity:1;"/>
<stop offset="0.8" style="stop-color:rgb(100%,77.254902%,23.529412%);stop-opacity:1;"/>
<stop offset="0.98" style="stop-color:rgb(69.803922%,43.137255%,17.647059%);stop-opacity:1;"/>
</linearGradient>
<linearGradient id="linear28" gradientUnits="userSpaceOnUse" x1="2487.72998" y1="176.100006" x2="3192.530029" y2="176.100006" gradientTransform="matrix(1,0,0,1,-2216,0)">
<stop offset="0.01" style="stop-color:rgb(69.803922%,43.137255%,17.647059%);stop-opacity:1;"/>
<stop offset="0.04" style="stop-color:rgb(78.823529%,53.333333%,19.607843%);stop-opacity:1;"/>
<stop offset="0.09" style="stop-color:rgb(88.235294%,63.921569%,21.176471%);stop-opacity:1;"/>
<stop offset="0.13" style="stop-color:rgb(94.901961%,71.372549%,22.352941%);stop-opacity:1;"/>
<stop offset="0.18" style="stop-color:rgb(98.823529%,75.686275%,23.137255%);stop-opacity:1;"/>
<stop offset="0.23" style="stop-color:rgb(100%,77.254902%,23.529412%);stop-opacity:1;"/>
<stop offset="0.28" style="stop-color:rgb(98.823529%,70.196078%,20.392157%);stop-opacity:1;"/>
<stop offset="0.36" style="stop-color:rgb(97.647059%,62.745098%,17.254902%);stop-opacity:1;"/>
<stop offset="0.43" style="stop-color:rgb(97.254902%,58.431373%,15.686275%);stop-opacity:1;"/>
<stop offset="0.52" style="stop-color:rgb(96.862745%,56.862745%,14.901961%);stop-opacity:1;"/>
<stop offset="0.8" style="stop-color:rgb(100%,77.254902%,23.529412%);stop-opacity:1;"/>
<stop offset="0.98" style="stop-color:rgb(69.803922%,43.137255%,17.647059%);stop-opacity:1;"/>
</linearGradient>
<linearGradient id="linear29" gradientUnits="userSpaceOnUse" x1="2487.72998" y1="176.100006" x2="3192.530029" y2="176.100006" gradientTransform="matrix(1,0,0,1,-2216,0)">
<stop offset="0.01" style="stop-color:rgb(69.803922%,43.137255%,17.647059%);stop-opacity:1;"/>
<stop offset="0.04" style="stop-color:rgb(78.823529%,53.333333%,19.607843%);stop-opacity:1;"/>
<stop offset="0.09" style="stop-color:rgb(88.235294%,63.921569%,21.176471%);stop-opacity:1;"/>
<stop offset="0.13" style="stop-color:rgb(94.901961%,71.372549%,22.352941%);stop-opacity:1;"/>
<stop offset="0.18" style="stop-color:rgb(98.823529%,75.686275%,23.137255%);stop-opacity:1;"/>
<stop offset="0.23" style="stop-color:rgb(100%,77.254902%,23.529412%);stop-opacity:1;"/>
<stop offset="0.28" style="stop-color:rgb(98.823529%,70.196078%,20.392157%);stop-opacity:1;"/>
<stop offset="0.36" style="stop-color:rgb(97.647059%,62.745098%,17.254902%);stop-opacity:1;"/>
<stop offset="0.43" style="stop-color:rgb(97.254902%,58.431373%,15.686275%);stop-opacity:1;"/>
<stop offset="0.52" style="stop-color:rgb(96.862745%,56.862745%,14.901961%);stop-opacity:1;"/>
<stop offset="0.8" style="stop-color:rgb(100%,77.254902%,23.529412%);stop-opacity:1;"/>
<stop offset="0.98" style="stop-color:rgb(69.803922%,43.137255%,17.647059%);stop-opacity:1;"/>
</linearGradient>
<linearGradient id="linear30" gradientUnits="userSpaceOnUse" x1="2487.72998" y1="176.100006" x2="3192.530029" y2="176.100006" gradientTransform="matrix(1,0,0,1,-2216,0)">
<stop offset="0.01" style="stop-color:rgb(69.803922%,43.137255%,17.647059%);stop-opacity:1;"/>
<stop offset="0.04" style="stop-color:rgb(78.823529%,53.333333%,19.607843%);stop-opacity:1;"/>
<stop offset="0.09" style="stop-color:rgb(88.235294%,63.921569%,21.176471%);stop-opacity:1;"/>
<stop offset="0.13" style="stop-color:rgb(94.901961%,71.372549%,22.352941%);stop-opacity:1;"/>
<stop offset="0.18" style="stop-color:rgb(98.823529%,75.686275%,23.137255%);stop-opacity:1;"/>
<stop offset="0.23" style="stop-color:rgb(100%,77.254902%,23.529412%);stop-opacity:1;"/>
<stop offset="0.28" style="stop-color:rgb(98.823529%,70.196078%,20.392157%);stop-opacity:1;"/>
<stop offset="0.36" style="stop-color:rgb(97.647059%,62.745098%,17.254902%);stop-opacity:1;"/>
<stop offset="0.43" style="stop-color:rgb(97.254902%,58.431373%,15.686275%);stop-opacity:1;"/>
<stop offset="0.52" style="stop-color:rgb(96.862745%,56.862745%,14.901961%);stop-opacity:1;"/>
<stop offset="0.8" style="stop-color:rgb(100%,77.254902%,23.529412%);stop-opacity:1;"/>
<stop offset="0.98" style="stop-color:rgb(69.803922%,43.137255%,17.647059%);stop-opacity:1;"/>
</linearGradient>
<linearGradient id="linear31" gradientUnits="userSpaceOnUse" x1="2487.72998" y1="176.100006" x2="3192.530029" y2="176.100006" gradientTransform="matrix(1,0,0,1,-2216,0)">
<stop offset="0.01" style="stop-color:rgb(69.803922%,43.137255%,17.647059%);stop-opacity:1;"/>
<stop offset="0.04" style="stop-color:rgb(78.823529%,53.333333%,19.607843%);stop-opacity:1;"/>
<stop offset="0.09" style="stop-color:rgb(88.235294%,63.921569%,21.176471%);stop-opacity:1;"/>
<stop offset="0.13" style="stop-color:rgb(94.901961%,71.372549%,22.352941%);stop-opacity:1;"/>
<stop offset="0.18" style="stop-color:rgb(98.823529%,75.686275%,23.137255%);stop-opacity:1;"/>
<stop offset="0.23" style="stop-color:rgb(100%,77.254902%,23.529412%);stop-opacity:1;"/>
<stop offset="0.28" style="stop-color:rgb(98.823529%,70.196078%,20.392157%);stop-opacity:1;"/>
<stop offset="0.36" style="stop-color:rgb(97.647059%,62.745098%,17.254902%);stop-opacity:1;"/>
<stop offset="0.43" style="stop-color:rgb(97.254902%,58.431373%,15.686275%);stop-opacity:1;"/>
<stop offset="0.52" style="stop-color:rgb(96.862745%,56.862745%,14.901961%);stop-opacity:1;"/>
<stop offset="0.8" style="stop-color:rgb(100%,77.254902%,23.529412%);stop-opacity:1;"/>
<stop offset="0.98" style="stop-color:rgb(69.803922%,43.137255%,17.647059%);stop-opacity:1;"/>
</linearGradient>
<linearGradient id="linear32" gradientUnits="userSpaceOnUse" x1="2487.72998" y1="176.100006" x2="3192.530029" y2="176.100006" gradientTransform="matrix(1,0,0,1,-2216,0)">
<stop offset="0.01" style="stop-color:rgb(69.803922%,43.137255%,17.647059%);stop-opacity:1;"/>
<stop offset="0.04" style="stop-color:rgb(78.823529%,53.333333%,19.607843%);stop-opacity:1;"/>
<stop offset="0.09" style="stop-color:rgb(88.235294%,63.921569%,21.176471%);stop-opacity:1;"/>
<stop offset="0.13" style="stop-color:rgb(94.901961%,71.372549%,22.352941%);stop-opacity:1;"/>
<stop offset="0.18" style="stop-color:rgb(98.823529%,75.686275%,23.137255%);stop-opacity:1;"/>
<stop offset="0.23" style="stop-color:rgb(100%,77.254902%,23.529412%);stop-opacity:1;"/>
<stop offset="0.28" style="stop-color:rgb(98.823529%,70.196078%,20.392157%);stop-opacity:1;"/>
<stop offset="0.36" style="stop-color:rgb(97.647059%,62.745098%,17.254902%);stop-opacity:1;"/>
<stop offset="0.43" style="stop-color:rgb(97.254902%,58.431373%,15.686275%);stop-opacity:1;"/>
<stop offset="0.52" style="stop-color:rgb(96.862745%,56.862745%,14.901961%);stop-opacity:1;"/>
<stop offset="0.8" style="stop-color:rgb(100%,77.254902%,23.529412%);stop-opacity:1;"/>
<stop offset="0.98" style="stop-color:rgb(69.803922%,43.137255%,17.647059%);stop-opacity:1;"/>
</linearGradient>
<linearGradient id="linear33" gradientUnits="userSpaceOnUse" x1="2487.72998" y1="176.100006" x2="3192.530029" y2="176.100006" gradientTransform="matrix(1,0,0,1,-2216,0)">
<stop offset="0.01" style="stop-color:rgb(69.803922%,43.137255%,17.647059%);stop-opacity:1;"/>
<stop offset="0.04" style="stop-color:rgb(78.823529%,53.333333%,19.607843%);stop-opacity:1;"/>
<stop offset="0.09" style="stop-color:rgb(88.235294%,63.921569%,21.176471%);stop-opacity:1;"/>
<stop offset="0.13" style="stop-color:rgb(94.901961%,71.372549%,22.352941%);stop-opacity:1;"/>
<stop offset="0.18" style="stop-color:rgb(98.823529%,75.686275%,23.137255%);stop-opacity:1;"/>
<stop offset="0.23" style="stop-color:rgb(100%,77.254902%,23.529412%);stop-opacity:1;"/>
<stop offset="0.28" style="stop-color:rgb(98.823529%,70.196078%,20.392157%);stop-opacity:1;"/>
<stop offset="0.36" style="stop-color:rgb(97.647059%,62.745098%,17.254902%);stop-opacity:1;"/>
<stop offset="0.43" style="stop-color:rgb(97.254902%,58.431373%,15.686275%);stop-opacity:1;"/>
<stop offset="0.52" style="stop-color:rgb(96.862745%,56.862745%,14.901961%);stop-opacity:1;"/>
<stop offset="0.8" style="stop-color:rgb(100%,77.254902%,23.529412%);stop-opacity:1;"/>
<stop offset="0.98" style="stop-color:rgb(69.803922%,43.137255%,17.647059%);stop-opacity:1;"/>
</linearGradient>
<linearGradient id="linear34" gradientUnits="userSpaceOnUse" x1="2487.72998" y1="176.100006" x2="3192.530029" y2="176.100006" gradientTransform="matrix(1,0,0,1,-2216,0)">
<stop offset="0.01" style="stop-color:rgb(69.803922%,43.137255%,17.647059%);stop-opacity:1;"/>
<stop offset="0.04" style="stop-color:rgb(78.823529%,53.333333%,19.607843%);stop-opacity:1;"/>
<stop offset="0.09" style="stop-color:rgb(88.235294%,63.921569%,21.176471%);stop-opacity:1;"/>
<stop offset="0.13" style="stop-color:rgb(94.901961%,71.372549%,22.352941%);stop-opacity:1;"/>
<stop offset="0.18" style="stop-color:rgb(98.823529%,75.686275%,23.137255%);stop-opacity:1;"/>
<stop offset="0.23" style="stop-color:rgb(100%,77.254902%,23.529412%);stop-opacity:1;"/>
<stop offset="0.28" style="stop-color:rgb(98.823529%,70.196078%,20.392157%);stop-opacity:1;"/>
<stop offset="0.36" style="stop-color:rgb(97.647059%,62.745098%,17.254902%);stop-opacity:1;"/>
<stop offset="0.43" style="stop-color:rgb(97.254902%,58.431373%,15.686275%);stop-opacity:1;"/>
<stop offset="0.52" style="stop-color:rgb(96.862745%,56.862745%,14.901961%);stop-opacity:1;"/>
<stop offset="0.8" style="stop-color:rgb(100%,77.254902%,23.529412%);stop-opacity:1;"/>
<stop offset="0.98" style="stop-color:rgb(69.803922%,43.137255%,17.647059%);stop-opacity:1;"/>
</linearGradient>
<linearGradient id="linear35" gradientUnits="userSpaceOnUse" x1="2487.72998" y1="176.100006" x2="3192.530029" y2="176.100006" gradientTransform="matrix(1,0,0,1,-2216,0)">
<stop offset="0.01" style="stop-color:rgb(69.803922%,43.137255%,17.647059%);stop-opacity:1;"/>
<stop offset="0.04" style="stop-color:rgb(78.823529%,53.333333%,19.607843%);stop-opacity:1;"/>
<stop offset="0.09" style="stop-color:rgb(88.235294%,63.921569%,21.176471%);stop-opacity:1;"/>
<stop offset="0.13" style="stop-color:rgb(94.901961%,71.372549%,22.352941%);stop-opacity:1;"/>
<stop offset="0.18" style="stop-color:rgb(98.823529%,75.686275%,23.137255%);stop-opacity:1;"/>
<stop offset="0.23" style="stop-color:rgb(100%,77.254902%,23.529412%);stop-opacity:1;"/>
<stop offset="0.28" style="stop-color:rgb(98.823529%,70.196078%,20.392157%);stop-opacity:1;"/>
<stop offset="0.36" style="stop-color:rgb(97.647059%,62.745098%,17.254902%);stop-opacity:1;"/>
<stop offset="0.43" style="stop-color:rgb(97.254902%,58.431373%,15.686275%);stop-opacity:1;"/>
<stop offset="0.52" style="stop-color:rgb(96.862745%,56.862745%,14.901961%);stop-opacity:1;"/>
<stop offset="0.8" style="stop-color:rgb(100%,77.254902%,23.529412%);stop-opacity:1;"/>
<stop offset="0.98" style="stop-color:rgb(69.803922%,43.137255%,17.647059%);stop-opacity:1;"/>
</linearGradient>
<linearGradient id="linear36" gradientUnits="userSpaceOnUse" x1="2487.72998" y1="176.100006" x2="3192.530029" y2="176.100006" gradientTransform="matrix(1,0,0,1,-2216,0)">
<stop offset="0.01" style="stop-color:rgb(69.803922%,43.137255%,17.647059%);stop-opacity:1;"/>
<stop offset="0.04" style="stop-color:rgb(78.823529%,53.333333%,19.607843%);stop-opacity:1;"/>
<stop offset="0.09" style="stop-color:rgb(88.235294%,63.921569%,21.176471%);stop-opacity:1;"/>
<stop offset="0.13" style="stop-color:rgb(94.901961%,71.372549%,22.352941%);stop-opacity:1;"/>
<stop offset="0.18" style="stop-color:rgb(98.823529%,75.686275%,23.137255%);stop-opacity:1;"/>
<stop offset="0.23" style="stop-color:rgb(100%,77.254902%,23.529412%);stop-opacity:1;"/>
<stop offset="0.28" style="stop-color:rgb(98.823529%,70.196078%,20.392157%);stop-opacity:1;"/>
<stop offset="0.36" style="stop-color:rgb(97.647059%,62.745098%,17.254902%);stop-opacity:1;"/>
<stop offset="0.43" style="stop-color:rgb(97.254902%,58.431373%,15.686275%);stop-opacity:1;"/>
<stop offset="0.52" style="stop-color:rgb(96.862745%,56.862745%,14.901961%);stop-opacity:1;"/>
<stop offset="0.8" style="stop-color:rgb(100%,77.254902%,23.529412%);stop-opacity:1;"/>
<stop offset="0.98" style="stop-color:rgb(69.803922%,43.137255%,17.647059%);stop-opacity:1;"/>
</linearGradient>
</defs>
<g id="surface1">
<path style=" stroke:none;fill-rule:nonzero;fill:url(#linear0);" d="M 1.074219 10.261719 C 1.113281 10.265625 1.148438 10.265625 1.183594 10.261719 C 1.859375 10.261719 2.328125 9.695312 2.320312 8.902344 C 2.324219 8.601562 2.246094 8.308594 2.089844 8.050781 C 1.890625 7.703125 1.515625 7.496094 1.113281 7.507812 C 0.535156 7.535156 0.015625 8.160156 0 8.851562 C -0.015625 9.605469 0.460938 10.203125 1.074219 10.261719 Z M 1.074219 10.261719 "/>
<path style=" stroke:none;fill-rule:nonzero;fill:url(#linear1);" d="M 34.71875 12.902344 C 34.601562 12.367188 34.460938 11.855469 34.292969 11.339844 C 34.273438 11.355469 34.253906 11.371094 34.230469 11.382812 C 34.171875 11.414062 34.121094 11.457031 34.078125 11.507812 C 33.785156 12.058594 33.476562 12.589844 33.148438 13.097656 C 31.894531 15.078125 30.28125 16.804688 28.386719 18.179688 C 28.257812 18.273438 28.046875 18.414062 28.15625 18.621094 C 28.265625 18.828125 28.484375 18.726562 28.660156 18.621094 C 30.375 17.675781 31.972656 16.53125 33.328125 14.953125 C 33.410156 14.859375 33.480469 14.746094 33.5625 14.644531 C 33.792969 15.667969 33.953125 16.707031 34.039062 17.753906 C 34.089844 18.359375 34.113281 18.976562 34.113281 19.601562 C 34.117188 21.148438 33.957031 22.6875 33.636719 24.199219 C 33.484375 24.933594 33.292969 25.660156 33.058594 26.371094 C 32.976562 26.210938 32.886719 26.042969 32.796875 25.882812 C 32.511719 25.371094 32.207031 24.871094 31.886719 24.382812 C 29.96875 21.496094 27.417969 19.21875 24.484375 17.835938 C 22.066406 14.59375 20.203125 10.882812 18.523438 7.019531 C 18.347656 6.617188 18.292969 5.910156 17.90625 5.9375 C 17.578125 5.957031 17.46875 6.648438 17.292969 7.0625 C 15.660156 10.84375 13.832031 14.480469 11.457031 17.707031 L 11.355469 17.84375 C 8.421875 19.230469 5.871094 21.507812 3.949219 24.402344 C 3.628906 24.882812 3.324219 25.382812 3.042969 25.898438 C 2.953125 26.050781 2.867188 26.21875 2.785156 26.378906 C 2.554688 25.667969 2.359375 24.949219 2.207031 24.21875 C 1.886719 22.703125 1.726562 21.160156 1.726562 19.613281 C 1.726562 18.996094 1.753906 18.386719 1.800781 17.785156 C 1.886719 16.734375 2.046875 15.691406 2.28125 14.664062 C 2.328125 14.734375 2.378906 14.804688 2.4375 14.871094 C 3.6875 16.332031 5.199219 17.542969 6.902344 18.4375 C 7.300781 18.71875 7.695312 19.019531 8.242188 18.867188 L 7.203125 18.09375 C 6.070312 17.207031 5.039062 16.191406 4.132812 15.070312 C 3.621094 14.4375 3.144531 13.777344 2.707031 13.09375 C 2.347656 12.53125 2.003906 11.949219 1.679688 11.34375 C 1.664062 11.363281 1.644531 11.378906 1.625 11.390625 C 1.5625 11.445312 1.527344 11.46875 1.511719 11.503906 C 1.460938 11.625 1.417969 11.75 1.382812 11.878906 C 1.300781 12.1875 1.230469 12.480469 1.164062 12.777344 C -0.339844 17.929688 -0.0976562 23.429688 1.847656 28.429688 C 2.125 29.125 2.4375 29.808594 2.78125 30.472656 C 3.007812 29.777344 3.269531 29.09375 3.566406 28.429688 C 3.90625 27.667969 4.292969 26.929688 4.722656 26.21875 C 6.789062 22.800781 9.785156 20.210938 13.269531 18.976562 C 16.28125 17.910156 19.5625 17.910156 22.574219 18.976562 C 26.070312 20.210938 29.070312 22.808594 31.136719 26.242188 C 31.558594 26.945312 31.941406 27.675781 32.273438 28.425781 C 32.570312 29.09375 32.832031 29.773438 33.054688 30.46875 C 33.402344 29.804688 33.714844 29.121094 33.992188 28.425781 C 35.097656 25.621094 35.664062 22.628906 35.65625 19.609375 C 35.664062 17.339844 35.347656 15.082031 34.71875 12.902344 Z M 34.71875 12.902344 "/>
<path style=" stroke:none;fill-rule:nonzero;fill:url(#linear2);" d="M 17.886719 5.109375 C 19.105469 5.125 20.039062 4.070312 20.070312 2.644531 C 20.097656 1.882812 19.8125 1.144531 19.28125 0.601562 C 18.941406 0.253906 18.480469 0.046875 17.992188 0.0234375 C 17.460938 0.015625 16.945312 0.222656 16.566406 0.601562 C 16.070312 1.097656 15.785156 1.769531 15.773438 2.476562 C 15.734375 3.945312 16.660156 5.097656 17.886719 5.109375 Z M 17.886719 5.109375 "/>
<path style=" stroke:none;fill-rule:nonzero;fill:url(#linear3);" d="M 5.914062 15.050781 C 6.242188 13.417969 6.789062 11.90625 7.679688 10.574219 C 7.949219 10.164062 8.164062 10.085938 8.511719 10.511719 C 9.363281 11.53125 10.402344 12.375 11.570312 13.003906 C 11.789062 13.125 12.003906 13.347656 12.285156 13.203125 C 12.28125 13.066406 12.207031 12.941406 12.089844 12.871094 C 10.617188 11.582031 9.238281 10.183594 8.339844 8.230469 C 8.238281 8.011719 7.988281 7.625 7.707031 8.15625 C 6.679688 10.09375 5.765625 12.082031 5.632812 14.429688 C 5.578125 14.882812 5.464844 15.34375 5.722656 15.785156 C 5.980469 15.558594 5.789062 15.261719 5.914062 15.050781 Z M 5.914062 15.050781 "/>
<path style=" stroke:none;fill-rule:nonzero;fill:url(#linear4);" d="M 27.277344 10.574219 C 27.671875 10.109375 27.90625 10.1875 28.222656 10.652344 C 29.003906 11.824219 29.464844 13.175781 29.863281 14.566406 C 29.917969 14.753906 29.875 15.03125 30.199219 15.070312 C 30.199219 12.554688 29.449219 10.386719 28.175781 8.421875 C 27.855469 7.925781 27.683594 7.992188 27.425781 8.472656 C 26.480469 10.183594 25.210938 11.691406 23.691406 12.910156 L 22.761719 13.585938 C 23.234375 13.539062 23.65625 13.429688 24.015625 13.121094 C 25.265625 12.503906 26.375 11.636719 27.277344 10.574219 Z M 27.277344 10.574219 "/>
<path style=" stroke:none;fill-rule:nonzero;fill:url(#linear5);" d="M 8.328125 7.445312 C 8.917969 7.890625 9.28125 7.507812 9.601562 6.960938 C 9.941406 5.804688 9.699219 5.011719 8.953125 4.804688 C 8.378906 4.648438 7.800781 5.015625 7.605469 5.675781 C 7.386719 6.425781 7.640625 7.0625 8.328125 7.445312 Z M 8.328125 7.445312 "/>
<path style=" stroke:none;fill-rule:nonzero;fill:url(#linear6);" d="M 27.164062 7.433594 C 27.777344 7.433594 28.292969 6.839844 28.308594 6.128906 C 28.324219 5.421875 27.832031 4.808594 27.210938 4.777344 C 26.589844 4.742188 26.070312 5.277344 26.050781 6.019531 C 26.027344 6.785156 26.53125 7.429688 27.164062 7.433594 Z M 27.164062 7.433594 "/>
<path style=" stroke:none;fill-rule:nonzero;fill:url(#linear7);" d="M 33.808594 10.632812 C 33.847656 10.636719 33.890625 10.636719 33.933594 10.632812 C 34.519531 10.566406 34.96875 9.988281 34.957031 9.277344 C 34.949219 8.59375 34.398438 7.972656 33.808594 7.980469 C 33.445312 7.992188 33.113281 8.1875 32.933594 8.503906 C 32.785156 8.746094 32.710938 9.023438 32.710938 9.308594 C 32.710938 10.058594 33.179688 10.632812 33.808594 10.632812 Z M 33.808594 10.632812 "/>
<path style=" stroke:none;fill-rule:nonzero;fill:url(#linear8);" d="M 33.296875 34.765625 C 33.277344 34.636719 33.210938 34.515625 33.113281 34.425781 C 33.039062 34.269531 32.875 34.132812 32.601562 33.921875 C 32.433594 33.796875 32.265625 33.675781 32.09375 33.558594 L 32.109375 33.542969 L 32.230469 33.441406 C 32.335938 33.347656 32.441406 33.242188 32.535156 33.132812 C 32.660156 32.992188 32.796875 32.867188 32.949219 32.753906 C 33.285156 32.535156 33.125 32.191406 33.078125 32.078125 C 33.015625 31.953125 32.941406 31.832031 32.855469 31.726562 C 32.710938 31.429688 32.511719 31.183594 32.265625 30.992188 C 31.890625 30.664062 31.484375 30.367188 31.058594 30.109375 C 30.921875 28.207031 29.820312 26.957031 27.863281 26.476562 C 27.613281 26.410156 27.386719 26.285156 27.199219 26.109375 C 27.066406 25.972656 26.894531 25.886719 26.707031 25.867188 C 27.015625 25.6875 27.34375 25.535156 27.683594 25.414062 C 28 25.296875 28.121094 25.074219 28.03125 24.78125 C 27.777344 23.957031 27.246094 23.320312 26.753906 22.804688 C 26.671875 22.691406 26.535156 22.625 26.394531 22.628906 C 26.320312 22.640625 26.257812 22.683594 26.210938 22.742188 L 26.195312 22.730469 L 26.15625 22.707031 L 26.097656 22.613281 L 26.097656 22.671875 C 25.785156 22.476562 25.441406 22.335938 25.078125 22.269531 L 25.015625 22.261719 L 24.984375 22.28125 L 24.960938 22.265625 C 24.914062 22.234375 24.867188 22.214844 24.816406 22.203125 L 24.789062 22.136719 L 24.6875 22.136719 C 24.605469 22.128906 24.53125 22.128906 24.453125 22.125 C 24.328125 22.128906 24.199219 22.113281 24.078125 22.078125 C 24.054688 22.039062 24.035156 21.992188 24.027344 21.945312 C 24.003906 21.832031 23.949219 21.730469 23.875 21.644531 L 23.890625 21.574219 L 23.800781 21.515625 C 23.71875 21.457031 23.644531 21.40625 23.566406 21.347656 L 23.410156 21.25 L 23.398438 21.242188 C 22.539062 20.792969 21.632812 20.78125 20.789062 20.839844 C 20.734375 20.839844 20.675781 20.839844 20.621094 20.851562 L 20.261719 20.878906 L 19.632812 20.90625 L 19.605469 20.917969 C 19.464844 20.96875 19.3125 20.992188 19.160156 20.988281 L 19.109375 20.988281 L 19.066406 21.011719 C 18.957031 21.0625 18.839844 21.082031 18.71875 21.066406 L 18.550781 21.066406 L 18.527344 21.121094 C 18.375 21.128906 18.222656 21.164062 18.082031 21.222656 C 17.945312 21.289062 17.792969 21.3125 17.644531 21.292969 C 16.636719 20.792969 15.707031 20.773438 14.792969 21.242188 L 14.78125 21.253906 C 14.628906 21.347656 14.519531 21.5 14.484375 21.675781 C 14.449219 21.851562 14.484375 22.035156 14.589844 22.183594 C 14.699219 22.375 14.867188 22.519531 15.074219 22.597656 C 14.71875 22.5625 14.367188 22.503906 14.023438 22.421875 C 13.878906 22.382812 13.738281 22.324219 13.609375 22.25 C 13.566406 22.230469 13.527344 22.203125 13.492188 22.167969 C 13.527344 22.125 13.570312 22.089844 13.617188 22.066406 C 13.636719 22.054688 13.652344 22.046875 13.671875 22.042969 C 13.757812 22.007812 13.980469 21.921875 13.914062 21.679688 C 13.839844 21.40625 13.570312 21.457031 13.476562 21.476562 C 13.460938 21.480469 13.441406 21.484375 13.421875 21.484375 C 13.289062 21.496094 13.160156 21.515625 13.027344 21.539062 L 12.875 21.566406 L 12.824219 21.578125 C 12.5 21.75 12.363281 21.992188 12.40625 22.296875 C 12.355469 22.917969 12.269531 23.535156 12.148438 24.148438 L 12.148438 24.15625 C 12.125 24.28125 12.101562 24.410156 12.078125 24.53125 C 12.054688 24.65625 12.03125 24.675781 12.019531 24.6875 C 12.007812 24.699219 11.957031 24.714844 11.824219 24.671875 C 10.847656 24.363281 10.246094 23.789062 9.980469 22.914062 C 9.964844 22.871094 9.960938 22.828125 9.960938 22.785156 C 10.007812 22.777344 10.054688 22.773438 10.101562 22.777344 C 10.40625 22.8125 10.703125 22.910156 10.972656 23.058594 C 11.132812 23.140625 11.300781 23.214844 11.46875 23.277344 C 11.644531 23.359375 11.847656 23.355469 12.019531 23.269531 C 12.15625 23.152344 12.226562 22.980469 12.214844 22.804688 L 12.214844 22.742188 L 12.175781 22.695312 C 12.15625 22.675781 12.140625 22.65625 12.128906 22.632812 C 12.078125 22.542969 12.007812 22.472656 11.921875 22.421875 C 11.15625 21.96875 10.230469 21.886719 9.398438 22.195312 C 9.15625 22.277344 9.070312 22.464844 9.136719 22.753906 C 9.1875 22.984375 9.253906 23.214844 9.3125 23.4375 C 9.335938 23.523438 9.363281 23.617188 9.386719 23.707031 L 9.40625 23.742188 C 9.75 24.355469 10.246094 24.871094 10.839844 25.242188 L 10.859375 25.253906 C 11.78125 25.65625 12.765625 25.84375 13.703125 26.003906 C 13.859375 26.015625 14.003906 26.027344 14.152344 26.039062 C 15.066406 26.109375 16.007812 26.191406 16.898438 26.472656 C 17.46875 26.667969 18 26.964844 18.464844 27.355469 C 15.792969 28.070312 13.691406 29.753906 11.863281 32.640625 C 11.863281 32.640625 11.851562 32.648438 11.847656 32.648438 C 11.820312 32.570312 11.785156 32.511719 11.738281 32.460938 C 11.679688 32.25 11.589844 32.050781 11.472656 31.863281 C 11.417969 31.644531 11.34375 31.429688 11.273438 31.222656 C 11.144531 30.882812 11.046875 30.53125 10.984375 30.175781 C 10.972656 30.113281 10.960938 30.0625 10.949219 30 L 10.929688 29.910156 C 10.761719 29.054688 10.636719 28.179688 10.519531 27.332031 C 10.453125 26.882812 10.386719 26.421875 10.316406 25.964844 C 10.296875 25.832031 10.273438 25.699219 10.253906 25.5625 L 10.253906 25.53125 L 10.238281 25.503906 C 10.199219 25.429688 10.175781 25.34375 10.167969 25.261719 C 10.152344 25.078125 10.078125 24.902344 9.949219 24.769531 L 9.839844 24.667969 L 9.726562 24.773438 C 9.726562 24.773438 9.714844 24.785156 9.703125 24.789062 C 9.648438 24.824219 9.613281 24.882812 9.605469 24.945312 C 9.585938 25.210938 9.578125 25.476562 9.5625 25.738281 L 9.550781 25.984375 L 9.550781 26.003906 C 9.554688 26.019531 9.558594 26.039062 9.566406 26.054688 C 9.570312 26.066406 9.574219 26.078125 9.574219 26.089844 C 9.585938 26.519531 9.605469 26.902344 9.625 27.261719 C 9.75 29.273438 10.070312 30.890625 10.628906 32.316406 C 9.890625 31.625 9.09375 31.003906 8.328125 30.421875 L 8.316406 30.414062 L 8.160156 30.296875 C 8.0625 30.230469 7.957031 30.167969 7.855469 30.097656 C 7.628906 29.957031 7.394531 29.8125 7.183594 29.65625 C 6.796875 29.371094 6.710938 29.066406 6.890625 28.636719 C 7.273438 27.753906 7.753906 26.921875 8.324219 26.152344 C 8.394531 26.0625 8.464844 25.96875 8.539062 25.867188 C 8.871094 25.46875 9.152344 25.027344 9.375 24.5625 L 9.453125 24.382812 L 9.265625 24.335938 C 9.136719 24.304688 9 24.332031 8.890625 24.40625 L 8.875 24.414062 C 8.855469 24.425781 8.835938 24.433594 8.816406 24.4375 L 8.753906 24.4375 L 8.703125 24.476562 C 8.246094 24.84375 7.839844 25.269531 7.5 25.75 C 6.730469 26.859375 6.25 28.085938 5.84375 29.25 C 5.675781 29.726562 5.792969 29.988281 6.242188 30.160156 C 6.253906 30.167969 6.265625 30.167969 6.28125 30.171875 C 5.285156 30.386719 4.507812 30.988281 3.851562 31.542969 C 3.605469 31.738281 3.40625 31.980469 3.261719 32.261719 C 3.210938 32.371094 3.054688 32.722656 3.390625 32.9375 C 3.542969 33.046875 3.679688 33.175781 3.804688 33.316406 C 3.898438 33.425781 4.003906 33.53125 4.109375 33.625 L 4.230469 33.726562 C 4.464844 33.933594 4.753906 34.191406 5.179688 34.144531 C 5.074219 35.207031 5.460938 36.101562 6.394531 36.960938 C 7.132812 37.703125 8.03125 38.214844 8.816406 38.617188 C 8.921875 38.667969 9.023438 38.722656 9.125 38.78125 C 9.464844 38.96875 9.8125 39.128906 10.171875 39.269531 C 10.316406 39.324219 10.460938 39.371094 10.613281 39.402344 C 10.765625 39.515625 10.902344 39.644531 11.015625 39.796875 C 11.125 39.9375 11.25 40.066406 11.386719 40.183594 C 11.488281 40.316406 11.609375 40.433594 11.746094 40.527344 C 11.832031 40.589844 11.910156 40.65625 11.980469 40.730469 C 12.019531 40.769531 12.0625 40.804688 12.113281 40.832031 L 14.957031 42.453125 C 15.132812 42.453125 15.152344 42.464844 15.175781 42.578125 C 15.175781 42.589844 15.179688 42.605469 15.1875 42.617188 C 15.195312 42.652344 15.203125 42.6875 15.214844 42.71875 L 15.164062 42.761719 C 15.222656 42.886719 15.300781 43.003906 15.390625 43.109375 C 15.542969 43.359375 15.773438 43.550781 16.046875 43.65625 C 16.1875 43.703125 16.316406 43.78125 16.421875 43.882812 C 16.519531 44.078125 16.59375 44.285156 16.636719 44.5 C 16.648438 44.566406 16.667969 44.640625 16.691406 44.710938 C 16.730469 44.871094 16.757812 45.03125 16.769531 45.191406 L 16.785156 45.296875 C 17.050781 47.308594 17.1875 49.355469 17.277344 51.382812 C 17.265625 51.652344 17.25 51.929688 17.238281 52.199219 L 17.238281 52.214844 C 17.199219 53.035156 17.15625 53.871094 17.125 54.703125 C 17.105469 55.265625 17.089844 55.835938 17.070312 56.414062 L 17.3125 56.414062 C 17.3125 56.535156 17.3125 56.660156 17.300781 56.78125 L 17.597656 56.78125 C 17.597656 56.84375 17.597656 56.90625 17.597656 56.96875 L 19.007812 56.96875 C 18.992188 56.390625 18.976562 55.820312 18.953125 55.253906 C 18.925781 54.425781 18.882812 53.585938 18.839844 52.769531 L 18.839844 52.753906 C 18.839844 52.734375 18.839844 52.71875 18.839844 52.699219 C 18.933594 50.246094 19.070312 47.746094 19.386719 45.300781 L 19.40625 45.199219 C 19.417969 45.035156 19.445312 44.875 19.484375 44.71875 C 19.503906 44.644531 19.523438 44.570312 19.539062 44.503906 C 19.65625 44.050781 19.753906 43.65625 20.269531 43.472656 C 20.707031 43.289062 21.03125 42.902344 21.132812 42.433594 C 21.136719 42.417969 21.140625 42.40625 21.144531 42.390625 C 21.164062 42.28125 21.183594 42.257812 21.363281 42.265625 L 21.546875 42.164062 L 23.089844 41.761719 C 23.539062 41.617188 23.96875 41.425781 24.375 41.1875 C 24.589844 41.058594 24.800781 40.917969 25.003906 40.769531 C 25.625 40.339844 26.097656 39.722656 26.351562 39.007812 C 26.488281 38.953125 26.617188 38.894531 26.746094 38.828125 L 26.886719 38.828125 C 28.125 38.589844 29.316406 38.15625 30.417969 37.542969 C 31.375 37.023438 32.226562 36.332031 32.9375 35.503906 C 33.195312 35.1875 33.324219 34.984375 33.296875 34.765625 Z M 27.257812 33.351562 C 27.34375 33.234375 27.457031 33.144531 27.589844 33.09375 L 27.601562 33.09375 C 27.867188 32.953125 28.136719 32.816406 28.421875 32.679688 L 28.523438 32.628906 C 28.539062 32.957031 28.484375 33.285156 28.371094 33.59375 C 27.984375 34.476562 27.230469 35.023438 26.503906 35.550781 C 26.390625 35.628906 26.277344 35.703125 26.144531 35.785156 C 26.289062 35.476562 26.425781 35.167969 26.550781 34.859375 C 26.753906 34.34375 26.992188 33.839844 27.257812 33.351562 Z M 15.5625 24.078125 C 15.21875 24.171875 14.882812 24.300781 14.566406 24.464844 L 14.414062 24.535156 C 14.3125 24.582031 14.117188 24.671875 14.132812 24.871094 C 14.132812 24.988281 14.117188 25.023438 14.109375 25.023438 C 14.046875 25.03125 13.984375 25.03125 13.921875 25.015625 C 13.878906 25.015625 13.835938 25.003906 13.796875 25 C 13.46875 24.972656 13.140625 24.9375 12.828125 24.890625 C 12.804688 24.890625 12.78125 24.886719 12.761719 24.882812 C 13.015625 24.132812 13.03125 23.402344 13.007812 22.710938 L 13.007812 22.648438 C 13.03125 22.65625 13.058594 22.667969 13.082031 22.683594 C 15.066406 23.75 17.144531 23.378906 18.933594 22.945312 L 19.535156 22.789062 L 20.972656 22.359375 C 21.042969 22.355469 21.113281 22.347656 21.179688 22.335938 C 21.3125 22.308594 21.453125 22.304688 21.585938 22.328125 C 21.636719 22.34375 21.6875 22.355469 21.742188 22.359375 C 21.871094 22.382812 21.933594 22.398438 21.96875 22.4375 C 21.46875 22.613281 20.945312 22.730469 20.417969 22.78125 L 20.363281 22.78125 C 20.226562 22.78125 19.902344 22.816406 19.902344 23.171875 C 19.898438 23.289062 19.945312 23.402344 20.03125 23.480469 C 20.152344 23.578125 20.3125 23.617188 20.46875 23.589844 C 21.140625 23.554688 21.804688 23.394531 22.421875 23.125 C 22.695312 23.003906 23.050781 22.777344 22.984375 22.292969 L 22.996094 22.152344 L 22.949219 22.101562 L 22.863281 22.015625 C 22.710938 21.867188 22.542969 21.738281 22.355469 21.640625 C 22.550781 21.695312 22.742188 21.761719 22.925781 21.84375 L 23.011719 21.882812 L 23.046875 21.902344 L 23.101562 21.902344 L 23.378906 22.148438 C 23.523438 22.445312 23.457031 22.722656 23.171875 23.042969 C 22.878906 23.371094 22.492188 23.597656 22.0625 23.691406 L 21.011719 23.808594 L 20.539062 23.859375 L 19.640625 23.867188 C 19.476562 23.867188 19.3125 23.859375 19.148438 23.855469 C 17.96875 23.816406 16.75 23.789062 15.5625 24.078125 Z M 20.492188 27.3125 L 20.507812 27.304688 C 21.753906 26.878906 22.746094 26.492188 23.644531 26.089844 C 23.894531 25.976562 24.148438 25.847656 24.390625 25.71875 C 24.492188 25.660156 24.601562 25.609375 24.707031 25.554688 L 24.765625 25.527344 L 24.78125 25.492188 L 24.832031 25.492188 L 24.878906 25.449219 C 24.972656 25.371094 25.0625 25.296875 25.160156 25.21875 L 25.167969 25.207031 C 25.535156 24.816406 25.703125 24.347656 25.878906 23.820312 C 25.917969 23.722656 25.96875 23.628906 26.035156 23.546875 C 26.128906 23.433594 26.199219 23.308594 26.246094 23.167969 C 26.320312 23.28125 26.402344 23.386719 26.472656 23.496094 C 26.730469 23.84375 26.949219 24.21875 27.121094 24.613281 C 27.140625 24.660156 27.152344 24.683594 27.15625 24.699219 C 27.136719 24.710938 27.117188 24.71875 27.097656 24.726562 C 26.636719 24.910156 26.144531 25.121094 25.59375 25.371094 C 25.332031 25.511719 25.101562 25.703125 24.917969 25.933594 C 24.859375 25.996094 24.800781 26.0625 24.742188 26.125 L 24.71875 26.152344 C 24.285156 26.875 23.890625 27.632812 23.507812 28.367188 C 23.351562 28.675781 23.183594 28.984375 23.019531 29.292969 L 23.003906 29.332031 C 22.984375 29.410156 22.964844 29.484375 22.945312 29.5625 L 22.945312 29.570312 C 22.894531 29.753906 22.847656 29.941406 22.808594 30.128906 C 22.796875 30.167969 22.789062 30.179688 22.789062 30.183594 L 22.761719 30.183594 C 22.285156 30.148438 21.800781 30.132812 21.339844 30.121094 C 20.101562 30.085938 18.824219 30.046875 17.621094 29.632812 C 17.542969 29.605469 17.46875 29.570312 17.394531 29.535156 C 17.199219 29.414062 16.96875 29.355469 16.738281 29.371094 L 16.34375 29.429688 L 16.554688 29.582031 L 16.324219 29.613281 C 15.976562 29.660156 15.75 29.871094 15.53125 30.074219 C 15.433594 30.167969 15.332031 30.25 15.222656 30.328125 C 14.820312 30.59375 14.4375 30.890625 14.0625 31.175781 C 13.894531 31.308594 13.726562 31.4375 13.550781 31.566406 C 15.25 29.324219 17.726562 27.800781 20.492188 27.304688 Z M 26.042969 33.996094 C 25.425781 34.613281 24.800781 35.21875 24.171875 35.789062 C 23.429688 36.453125 22.695312 37.0625 21.980469 37.621094 C 21.960938 37.605469 21.941406 37.59375 21.921875 37.578125 C 20.191406 36.484375 18.238281 35.953125 16.359375 35.433594 C 15.953125 35.324219 15.542969 35.203125 15.144531 35.085938 C 15.089844 35.066406 15.03125 35.050781 14.976562 35.03125 C 15.21875 34.984375 15.457031 34.902344 15.675781 34.789062 C 15.824219 34.710938 15.976562 34.652344 16.136719 34.613281 L 16.273438 34.558594 L 17.199219 34.558594 C 17.3125 34.558594 17.429688 34.558594 17.554688 34.558594 C 17.84375 34.574219 18.132812 34.566406 18.417969 34.539062 C 18.691406 34.503906 18.921875 34.488281 19.109375 34.683594 L 19.144531 34.714844 L 19.1875 34.726562 C 20.316406 34.980469 21.808594 35.246094 23.363281 35.015625 C 23.449219 35.003906 23.539062 34.992188 23.628906 34.984375 L 23.648438 34.984375 C 23.6875 34.984375 23.722656 34.980469 23.757812 34.976562 L 23.796875 34.964844 C 24.5625 34.683594 25.3125 34.355469 26.042969 33.988281 Z M 12.464844 33.390625 C 12.960938 32.984375 13.449219 32.574219 13.929688 32.175781 L 14.472656 31.722656 C 14.636719 31.589844 14.800781 31.460938 14.964844 31.335938 C 15.484375 30.972656 15.957031 30.542969 16.378906 30.066406 C 16.410156 30.015625 16.441406 29.964844 16.46875 29.914062 L 16.496094 29.867188 L 16.625 29.640625 L 16.664062 29.671875 C 17.894531 30.597656 19.324219 30.765625 20.574219 30.84375 C 20.761719 30.859375 20.957031 30.867188 21.152344 30.875 C 21.609375 30.902344 22.082031 30.925781 22.578125 30.984375 C 21.402344 31.5625 20.210938 32.070312 19.046875 32.5625 C 18.164062 32.941406 17.246094 33.332031 16.359375 33.746094 L 16.34375 33.753906 C 16.203125 33.84375 16.046875 33.921875 15.882812 34.003906 C 15.476562 34.179688 15.109375 34.4375 14.808594 34.761719 L 14.65625 34.933594 L 14.074219 34.765625 C 13.371094 34.570312 12.917969 34.042969 12.441406 33.492188 L 12.441406 33.484375 C 12.429688 33.46875 12.417969 33.457031 12.40625 33.445312 C 12.425781 33.421875 12.445312 33.402344 12.464844 33.382812 Z M 12.453125 39.863281 C 12.429688 39.847656 12.410156 39.828125 12.390625 39.804688 C 13.117188 39.835938 13.867188 39.808594 14.613281 39.710938 C 14.800781 39.691406 14.992188 39.671875 15.183594 39.65625 L 15.207031 39.65625 C 15.257812 39.644531 15.308594 39.632812 15.359375 39.621094 L 17.058594 39.285156 L 18.003906 39.089844 C 17.464844 39.414062 16.957031 39.785156 16.488281 40.207031 L 16.085938 40.707031 L 16.015625 40.789062 C 15.992188 40.816406 15.972656 40.839844 15.945312 40.878906 C 15.855469 41.007812 15.753906 41.066406 15.484375 41.003906 C 14.5 40.761719 13.382812 40.5 12.453125 39.855469 Z M 17.859375 42.933594 C 17.816406 42.945312 17.769531 42.949219 17.726562 42.945312 L 17.71875 42.945312 C 17.703125 42.941406 17.683594 42.941406 17.667969 42.945312 L 17.644531 42.945312 C 17.339844 42.953125 17.03125 42.945312 16.835938 42.726562 C 16.796875 42.683594 16.761719 42.632812 16.734375 42.582031 C 16.726562 42.558594 16.710938 42.539062 16.695312 42.515625 L 16.664062 42.464844 C 16.703125 42.472656 16.746094 42.476562 16.789062 42.472656 C 16.855469 42.472656 16.921875 42.472656 16.996094 42.472656 L 17.105469 42.480469 L 17.277344 42.480469 C 17.402344 42.480469 17.53125 42.492188 17.652344 42.507812 C 17.773438 42.519531 17.804688 42.570312 17.832031 42.6875 C 17.84375 42.75 17.851562 42.8125 17.855469 42.878906 C 17.859375 42.894531 17.859375 42.910156 17.859375 42.925781 Z M 19.417969 41.957031 C 19.40625 41.984375 19.390625 42.003906 19.378906 42.023438 C 19.351562 42.078125 19.320312 42.125 19.277344 42.167969 C 19.074219 42.386719 18.78125 42.398438 18.464844 42.386719 L 18.445312 42.386719 C 18.429688 42.386719 18.414062 42.386719 18.394531 42.386719 L 18.386719 42.386719 C 18.34375 42.390625 18.296875 42.386719 18.25 42.378906 C 18.25 42.378906 18.25 42.359375 18.25 42.320312 C 18.253906 42.253906 18.261719 42.191406 18.277344 42.125 C 18.300781 42.011719 18.347656 41.964844 18.453125 41.949219 C 18.5625 41.929688 18.703125 41.929688 18.828125 41.921875 L 19.109375 41.921875 C 19.179688 41.917969 19.246094 41.917969 19.316406 41.921875 C 19.359375 41.925781 19.402344 41.921875 19.445312 41.914062 Z M 25.515625 39.308594 C 25.460938 39.371094 25.40625 39.429688 25.351562 39.484375 C 24.605469 40.265625 23.625 40.78125 22.5625 40.953125 C 20.972656 41.222656 19.265625 41.308594 17.082031 41.226562 C 16.898438 41.226562 16.710938 41.214844 16.523438 41.207031 C 16.480469 41.207031 16.441406 41.203125 16.398438 41.191406 C 16.417969 41.167969 16.441406 41.140625 16.464844 41.121094 C 16.5 41.097656 16.535156 41.066406 16.566406 41.039062 C 16.652344 40.96875 16.734375 40.890625 16.8125 40.808594 C 16.9375 40.675781 17.082031 40.5625 17.234375 40.46875 L 17.273438 40.445312 C 17.71875 40.058594 18.234375 39.757812 18.789062 39.554688 C 19.425781 39.320312 20.089844 39.15625 20.761719 39.066406 C 21.335938 38.992188 21.914062 38.96875 22.492188 38.996094 L 22.511719 38.996094 C 22.933594 38.957031 23.359375 38.941406 23.78125 38.953125 L 23.800781 38.953125 C 24.066406 38.953125 24.339844 38.953125 24.613281 38.945312 C 25.058594 38.925781 25.511719 38.90625 25.953125 38.886719 C 25.796875 39.011719 25.652344 39.152344 25.515625 39.300781 Z M 30.851562 36.105469 C 29.402344 37.179688 27.683594 37.816406 25.886719 37.949219 L 25.859375 37.949219 L 25.835938 37.957031 C 25.785156 37.976562 25.734375 37.988281 25.683594 37.984375 L 25.660156 37.984375 C 25.183594 38.039062 24.699219 38.054688 24.21875 38.019531 C 24.832031 37.648438 25.433594 37.257812 26.019531 36.878906 L 26.371094 36.644531 C 26.5625 36.492188 26.773438 36.335938 26.984375 36.183594 C 27.328125 35.945312 27.652344 35.683594 27.960938 35.398438 C 28.535156 34.851562 29.074219 34.214844 29.160156 33.25 C 29.398438 33.375 29.636719 33.480469 29.867188 33.585938 C 30.207031 33.726562 30.535156 33.890625 30.851562 34.074219 C 30.964844 34.144531 31.074219 34.222656 31.175781 34.308594 C 31.222656 34.355469 31.269531 34.398438 31.3125 34.445312 C 31.460938 34.59375 31.554688 34.792969 31.570312 35 C 31.589844 35.355469 31.328125 35.746094 30.851562 36.097656 Z M 30.851562 36.105469 "/>
<path style=" stroke:none;fill-rule:nonzero;fill:url(#linear9);" d="M 111.269531 38.582031 C 110.972656 38.828125 110.550781 38.953125 110.003906 38.953125 L 108.949219 38.953125 L 108.949219 40.777344 L 107.902344 40.777344 L 107.902344 35.707031 L 110.070312 35.707031 C 110.503906 35.683594 110.929688 35.824219 111.269531 36.097656 C 111.566406 36.359375 111.714844 36.765625 111.714844 37.3125 C 111.714844 37.910156 111.566406 38.332031 111.269531 38.582031 Z M 110.464844 36.753906 C 110.300781 36.632812 110.101562 36.574219 109.902344 36.585938 L 108.949219 36.585938 L 108.949219 38.085938 L 109.902344 38.085938 C 110.105469 38.097656 110.304688 38.03125 110.464844 37.902344 C 110.609375 37.75 110.683594 37.539062 110.664062 37.324219 C 110.6875 37.113281 110.613281 36.90625 110.464844 36.753906 Z M 110.464844 36.753906 "/>
<path style=" stroke:none;fill-rule:nonzero;fill:url(#linear10);" d="M 116.277344 36.601562 L 113.65625 36.601562 L 113.65625 37.679688 L 116.058594 37.679688 L 116.058594 38.5625 L 113.65625 38.5625 L 113.65625 39.867188 L 116.402344 39.867188 L 116.402344 40.777344 L 112.625 40.777344 L 112.625 35.707031 L 116.277344 35.707031 Z M 116.277344 36.601562 "/>
<path style=" stroke:none;fill-rule:nonzero;fill:url(#linear11);" d="M 120.550781 35.835938 C 120.734375 35.914062 120.894531 36.035156 121.023438 36.191406 C 121.128906 36.316406 121.214844 36.460938 121.277344 36.617188 C 121.339844 36.785156 121.371094 36.96875 121.371094 37.148438 C 121.367188 37.398438 121.304688 37.640625 121.1875 37.859375 C 121.0625 38.097656 120.84375 38.277344 120.585938 38.355469 C 120.792969 38.425781 120.96875 38.566406 121.082031 38.753906 C 121.199219 39.003906 121.25 39.273438 121.238281 39.546875 L 121.238281 39.886719 C 121.230469 40.046875 121.242188 40.203125 121.265625 40.359375 C 121.285156 40.480469 121.355469 40.585938 121.460938 40.648438 L 121.460938 40.777344 L 120.289062 40.777344 C 120.253906 40.664062 120.234375 40.570312 120.21875 40.503906 C 120.191406 40.359375 120.175781 40.214844 120.175781 40.066406 L 120.175781 39.59375 C 120.175781 39.273438 120.113281 39.058594 120.007812 38.949219 C 119.898438 38.839844 119.699219 38.789062 119.40625 38.789062 L 118.367188 38.789062 L 118.367188 40.777344 L 117.335938 40.777344 L 117.335938 35.707031 L 119.753906 35.707031 C 120.023438 35.699219 120.292969 35.742188 120.550781 35.835938 Z M 118.367188 36.585938 L 118.367188 37.949219 L 119.503906 37.949219 C 119.675781 37.957031 119.851562 37.929688 120.011719 37.867188 C 120.210938 37.769531 120.320312 37.578125 120.320312 37.292969 C 120.320312 37.007812 120.222656 36.78125 120.027344 36.679688 C 119.875 36.609375 119.707031 36.578125 119.539062 36.589844 Z M 118.367188 36.585938 "/>
<path style=" stroke:none;fill-rule:nonzero;fill:url(#linear12);" d="M 122.417969 35.710938 L 126.019531 35.710938 L 126.019531 36.601562 L 123.46875 36.601562 L 123.46875 37.777344 L 125.703125 37.777344 L 125.703125 38.660156 L 123.46875 38.660156 L 123.46875 40.78125 L 122.417969 40.78125 Z M 122.417969 35.710938 "/>
<path style=" stroke:none;fill-rule:nonzero;fill:url(#linear13);" d="M 126.742188 35.707031 L 127.816406 35.707031 L 127.816406 38.820312 C 127.796875 39.082031 127.839844 39.347656 127.9375 39.589844 C 128.066406 39.875 128.34375 40.015625 128.769531 40.015625 C 129.199219 40.015625 129.476562 39.875 129.601562 39.589844 C 129.699219 39.347656 129.742188 39.082031 129.726562 38.820312 L 129.726562 35.707031 L 130.800781 35.707031 L 130.800781 38.820312 C 130.820312 39.257812 130.734375 39.695312 130.546875 40.089844 C 130.238281 40.636719 129.648438 40.914062 128.769531 40.914062 C 127.890625 40.914062 127.300781 40.640625 127 40.089844 C 126.832031 39.789062 126.75 39.367188 126.75 38.828125 Z M 126.742188 35.707031 "/>
<path style=" stroke:none;fill-rule:nonzero;fill:url(#linear14);" d="M 135.199219 35.707031 L 136.714844 35.707031 L 136.714844 40.777344 L 135.734375 40.777344 L 135.734375 37.347656 C 135.734375 37.25 135.734375 37.109375 135.734375 36.933594 C 135.734375 36.753906 135.734375 36.617188 135.734375 36.519531 L 134.777344 40.777344 L 133.753906 40.777344 L 132.804688 36.519531 C 132.804688 36.617188 132.804688 36.753906 132.804688 36.933594 C 132.804688 37.109375 132.804688 37.242188 132.804688 37.347656 L 132.804688 40.777344 L 131.820312 40.777344 L 131.820312 35.707031 L 133.355469 35.707031 L 134.277344 39.691406 Z M 135.199219 35.707031 "/>
<path style=" stroke:none;fill-rule:nonzero;fill:url(#linear15);" d="M 141.410156 36.601562 L 138.792969 36.601562 L 138.792969 37.679688 L 141.191406 37.679688 L 141.191406 38.5625 L 138.792969 38.5625 L 138.792969 39.867188 L 141.535156 39.867188 L 141.535156 40.777344 L 137.757812 40.777344 L 137.757812 35.707031 L 141.410156 35.707031 Z M 141.410156 36.601562 "/>
<path style=" stroke:none;fill-rule:nonzero;fill:url(#linear16);" d="M 143.207031 39.210938 C 143.222656 39.398438 143.289062 39.578125 143.398438 39.730469 C 143.574219 39.933594 143.875 40.039062 144.300781 40.039062 C 144.507812 40.042969 144.714844 40.015625 144.914062 39.953125 C 145.183594 39.890625 145.371094 39.644531 145.367188 39.367188 C 145.367188 39.207031 145.285156 39.054688 145.144531 38.976562 C 144.925781 38.863281 144.6875 38.78125 144.445312 38.738281 L 143.898438 38.621094 C 143.359375 38.5 142.988281 38.371094 142.789062 38.230469 C 142.449219 37.996094 142.277344 37.628906 142.277344 37.132812 C 142.269531 36.699219 142.453125 36.285156 142.777344 36 C 143.113281 35.699219 143.601562 35.550781 144.246094 35.550781 C 144.742188 35.539062 145.226562 35.6875 145.628906 35.976562 C 146.011719 36.269531 146.234375 36.726562 146.226562 37.207031 L 145.210938 37.207031 C 145.210938 36.929688 145.050781 36.679688 144.804688 36.558594 C 144.605469 36.46875 144.390625 36.421875 144.175781 36.429688 C 143.941406 36.417969 143.710938 36.476562 143.507812 36.59375 C 143.347656 36.691406 143.25 36.871094 143.257812 37.058594 C 143.253906 37.230469 143.347656 37.386719 143.503906 37.460938 C 143.71875 37.558594 143.945312 37.628906 144.175781 37.671875 L 145.0625 37.882812 C 145.375 37.941406 145.671875 38.066406 145.933594 38.25 C 146.242188 38.503906 146.410156 38.886719 146.386719 39.285156 C 146.394531 39.730469 146.199219 40.15625 145.851562 40.441406 C 145.496094 40.746094 144.992188 40.902344 144.339844 40.902344 C 143.6875 40.902344 143.164062 40.75 142.769531 40.449219 C 142.394531 40.152344 142.179688 39.691406 142.203125 39.210938 Z M 143.207031 39.210938 "/>
<path style=" stroke:none;fill-rule:nonzero;fill:url(#linear17);" d="M 71.605469 26.734375 L 77.21875 26.734375 L 77.21875 29.226562 L 71.605469 29.226562 Z M 71.605469 26.734375 "/>
<path style=" stroke:none;fill-rule:nonzero;fill:url(#linear18);" d="M 90.464844 25.746094 C 90.136719 25.738281 89.757812 25.746094 89.40625 25.738281 L 86.179688 25.75 C 85.875 25.746094 85.625 25.492188 85.628906 25.183594 L 85.628906 23.214844 C 85.625 22.90625 85.875 22.652344 86.179688 22.652344 L 93.273438 22.640625 L 93.292969 19.910156 C 93.292969 19.910156 86.980469 19.882812 86.246094 19.933594 C 84.230469 20.074219 83.328125 21.074219 83.066406 22.203125 C 82.875 23.011719 82.914062 25.707031 82.984375 26.320312 C 83.09375 27.324219 83.550781 28.542969 85.785156 28.554688 L 90.761719 28.554688 C 91.070312 28.554688 91.316406 28.808594 91.316406 29.117188 L 91.296875 30.996094 C 91.300781 31.304688 91.050781 31.558594 90.746094 31.5625 L 82.828125 31.5625 L 82.828125 34.414062 C 82.828125 34.414062 87.921875 34.363281 91.4375 34.363281 C 92.609375 34.363281 94.15625 33.859375 94.046875 29.621094 C 93.972656 26.496094 92.644531 25.796875 90.464844 25.746094 Z M 90.464844 25.746094 "/>
<path style=" stroke:none;fill-rule:nonzero;fill:url(#linear19);" d="M 100.050781 19.910156 L 102.746094 19.910156 L 102.746094 34.328125 L 100.050781 34.328125 Z M 100.050781 19.910156 "/>
<path style=" stroke:none;fill-rule:nonzero;fill:url(#linear20);" d="M 50.394531 21.914062 C 50.1875 21.679688 49.960938 21.464844 49.71875 21.269531 C 48.226562 20.101562 46.253906 19.945312 44.425781 19.933594 L 44.425781 19.902344 L 41.726562 19.902344 L 41.726562 34.324219 L 44.425781 34.324219 C 45.546875 34.332031 46.664062 34.234375 47.769531 34.03125 C 51.578125 33.242188 52.339844 28.46875 51.777344 25.226562 C 51.570312 24.042969 51.203125 22.832031 50.394531 21.914062 Z M 48.160156 30.601562 C 47.140625 31.527344 45.71875 31.496094 44.425781 31.492188 L 44.425781 22.699219 C 45.402344 22.699219 46.421875 22.730469 47.332031 23.121094 C 48.511719 23.636719 49.089844 24.753906 49.160156 25.992188 C 49.253906 27.628906 49.300781 29.558594 48.160156 30.601562 Z M 48.160156 30.601562 "/>
<path style=" stroke:none;fill-rule:nonzero;fill:url(#linear21);" d="M 111.152344 19.980469 L 108.398438 19.980469 L 108.398438 34.328125 L 117.0625 34.328125 L 117.0625 31.527344 L 111.152344 31.527344 Z M 111.152344 19.980469 "/>
<path style=" stroke:none;fill-rule:nonzero;fill:url(#linear22);" d="M 126.285156 31.125 C 126.253906 30.96875 122.734375 20.011719 122.734375 20.011719 L 119.84375 20.011719 L 124.550781 34.328125 L 128.175781 34.328125 L 132.570312 19.96875 L 129.730469 19.96875 C 129.730469 19.96875 126.320312 30.972656 126.285156 31.125 Z M 126.285156 31.125 "/>
<path style=" stroke:none;fill-rule:nonzero;fill:url(#linear23);" d="M 59.835938 19.96875 L 55.4375 34.328125 L 58.277344 34.328125 C 58.277344 34.328125 61.6875 23.328125 61.722656 23.175781 C 61.757812 23.328125 65.273438 34.285156 65.273438 34.285156 L 68.167969 34.285156 L 63.460938 19.96875 Z M 59.835938 19.96875 "/>
<path style=" stroke:none;fill-rule:nonzero;fill:url(#linear24);" d="M 137.78125 19.96875 L 133.386719 34.328125 L 136.226562 34.328125 C 136.226562 34.328125 139.640625 23.328125 139.671875 23.175781 C 139.707031 23.328125 143.226562 34.285156 143.226562 34.285156 L 146.117188 34.285156 L 141.40625 19.96875 Z M 137.78125 19.96875 "/>
<path style=" stroke:none;fill-rule:nonzero;fill:url(#linear25);" d="M 147.253906 20.007812 C 145.757812 20.007812 144.542969 21.226562 144.542969 22.726562 C 144.542969 24.226562 145.757812 25.445312 147.253906 25.445312 C 148.75 25.441406 149.960938 24.226562 149.960938 22.722656 C 149.960938 21.222656 148.746094 20.007812 147.253906 20.007812 Z M 147.253906 24.992188 C 146.003906 24.992188 144.992188 23.976562 144.992188 22.722656 C 144.992188 21.46875 146.003906 20.453125 147.253906 20.453125 C 148.503906 20.453125 149.515625 21.46875 149.515625 22.722656 C 149.511719 23.976562 148.5 24.988281 147.253906 24.988281 Z M 147.253906 24.992188 "/>
<path style=" stroke:none;fill-rule:nonzero;fill:url(#linear26);" d="M 147.527344 22.800781 L 147.527344 22.789062 C 147.835938 22.695312 148.042969 22.410156 148.039062 22.089844 C 148.042969 21.894531 147.964844 21.703125 147.824219 21.570312 C 147.652344 21.417969 147.410156 21.347656 147.035156 21.347656 C 146.808594 21.347656 146.582031 21.367188 146.359375 21.40625 L 146.359375 24.101562 L 146.710938 24.101562 L 146.710938 22.917969 L 147.042969 22.917969 C 147.363281 22.929688 147.503906 23.070312 147.589844 23.445312 C 147.628906 23.671875 147.6875 23.890625 147.769531 24.101562 L 148.132812 24.101562 C 148.042969 23.859375 147.972656 23.605469 147.921875 23.351562 C 147.867188 23.066406 147.738281 22.871094 147.527344 22.800781 Z M 147.078125 22.644531 L 146.71875 22.644531 L 146.71875 21.648438 C 146.832031 21.621094 146.949219 21.609375 147.066406 21.613281 C 147.4375 21.613281 147.691406 21.769531 147.691406 22.125 C 147.691406 22.445312 147.453125 22.648438 147.078125 22.648438 Z M 147.078125 22.644531 "/>
<path style="fill:none;stroke-width:0.5;stroke-linecap:butt;stroke-linejoin:miter;stroke:url(#linear27);stroke-miterlimit:10;" d="M 466.285279 173.336504 L 502.838219 173.336504 L 502.838219 189.510219 L 466.285279 189.510219 Z M 466.285279 173.336504 " transform="matrix(0.153566,0,0,0.154089,0,0.0251703)"/>
<path style="fill:none;stroke-width:0.5;stroke-linecap:butt;stroke-linejoin:miter;stroke:url(#linear28);stroke-miterlimit:10;" d="M 589.095018 166.922789 C 586.958312 166.872088 584.490925 166.922789 582.201597 166.872088 L 561.190651 166.94814 C 559.206567 166.922789 557.5786 165.274997 557.604037 163.272296 L 557.604037 150.495568 C 557.5786 148.492866 559.206567 146.845074 561.190651 146.845074 L 607.384207 146.769022 L 607.511392 129.048917 C 607.511392 129.048917 566.405232 128.871463 561.62308 129.201021 C 548.497598 130.113645 542.621656 136.603411 540.917378 143.929749 C 539.670966 149.177334 539.925336 166.669283 540.383202 170.649335 C 541.095437 177.164452 544.071564 185.073855 558.621516 185.149907 L 591.028229 185.149907 C 593.03775 185.149907 594.64028 186.7977 594.64028 188.800401 L 594.513095 200.994064 C 594.538532 202.996765 592.910565 204.644558 590.926481 204.669908 L 539.365722 204.669908 L 539.365722 223.175883 C 539.365722 223.175883 572.535544 222.846325 595.428826 222.846325 C 603.05992 222.846325 613.132964 219.576091 612.420729 192.070635 C 611.937426 171.790114 603.288853 167.252348 589.095018 166.922789 Z M 589.095018 166.922789 " transform="matrix(0.153566,0,0,0.154089,0,0.0251703)"/>
<path style="fill:none;stroke-width:0.5;stroke-linecap:butt;stroke-linejoin:miter;stroke:url(#linear29);stroke-miterlimit:10;" d="M 651.517367 129.048917 L 669.068883 129.048917 L 669.068883 222.618169 L 651.517367 222.618169 Z M 651.517367 129.048917 " transform="matrix(0.153566,0,0,0.154089,0,0.0251703)"/>
<path style="fill:none;stroke-width:0.5;stroke-linecap:butt;stroke-linejoin:miter;stroke:url(#linear30);stroke-miterlimit:10;" d="M 328.162478 142.053801 C 326.814318 140.532762 325.338973 139.138476 323.761881 137.870944 C 314.044954 130.291099 301.199279 129.277073 289.294773 129.201021 L 289.294773 128.998216 L 271.71782 128.998216 L 271.71782 222.592818 L 289.294773 222.592818 C 296.595186 222.64352 303.870162 222.009753 311.068828 220.69152 C 335.869883 215.570688 340.830094 184.592193 337.167169 163.551153 C 335.819009 155.869906 333.427933 148.011204 328.162478 142.053801 Z M 313.612526 198.433648 C 306.973474 204.441752 297.714413 204.238947 289.294773 204.213597 L 289.294773 147.149282 C 295.654018 147.149282 302.293069 147.352087 308.219886 149.887152 C 315.901854 153.233438 319.666527 160.483724 320.124392 168.51988 C 320.73488 179.141803 321.040124 191.665025 313.612526 198.433648 Z M 313.612526 198.433648 " transform="matrix(0.153566,0,0,0.154089,0,0.0251703)"/>
<path style="fill:none;stroke-width:0.5;stroke-linecap:butt;stroke-linejoin:miter;stroke:url(#linear31);stroke-miterlimit:10;" d="M 723.809264 129.505229 L 705.876193 129.505229 L 705.876193 222.618169 L 762.295415 222.618169 L 762.295415 204.441752 L 723.809264 204.441752 Z M 723.809264 129.505229 " transform="matrix(0.153566,0,0,0.154089,0,0.0251703)"/>
<path style="fill:none;stroke-width:0.5;stroke-linecap:butt;stroke-linejoin:miter;stroke:url(#linear32);stroke-miterlimit:10;" d="M 822.352124 201.830635 C 822.148628 200.816609 799.229909 129.708034 799.229909 129.708034 L 780.406544 129.708034 L 811.058105 222.618169 L 834.663622 222.618169 L 863.280225 129.429177 L 844.78754 129.429177 C 844.78754 129.429177 822.581057 200.84196 822.352124 201.830635 Z M 822.352124 201.830635 " transform="matrix(0.153566,0,0,0.154089,0,0.0251703)"/>
<path style="fill:none;stroke-width:0.5;stroke-linecap:butt;stroke-linejoin:miter;stroke:url(#linear33);stroke-miterlimit:10;" d="M 389.643659 129.429177 L 361.001619 222.618169 L 379.494304 222.618169 C 379.494304 222.618169 401.700787 151.230737 401.92972 150.242061 C 402.158653 151.230737 425.051935 222.339312 425.051935 222.339312 L 443.900737 222.339312 L 413.249176 129.429177 Z M 389.643659 129.429177 " transform="matrix(0.153566,0,0,0.154089,0,0.0251703)"/>
<path style="fill:none;stroke-width:0.5;stroke-linecap:butt;stroke-linejoin:miter;stroke:url(#linear34);stroke-miterlimit:10;" d="M 897.213156 129.429177 L 868.596554 222.618169 L 887.089238 222.618169 C 887.089238 222.618169 909.321159 151.230737 909.524654 150.242061 C 909.753587 151.230737 932.672306 222.339312 932.672306 222.339312 L 951.495671 222.339312 L 920.818673 129.429177 Z M 897.213156 129.429177 " transform="matrix(0.153566,0,0,0.154089,0,0.0251703)"/>
<path style="fill:none;stroke-width:0.5;stroke-linecap:butt;stroke-linejoin:miter;stroke:url(#linear35);stroke-miterlimit:10;" d="M 958.897832 129.682684 C 949.155469 129.682684 941.244568 137.592087 941.244568 147.326736 C 941.244568 157.061386 949.155469 164.970789 958.897832 164.970789 C 968.640196 164.945439 976.525659 157.061386 976.525659 147.301386 C 976.525659 137.566736 968.614759 129.682684 958.897832 129.682684 Z M 958.897832 162.030114 C 950.757999 162.030114 944.169821 155.438945 944.169821 147.301386 C 944.169821 139.163827 950.757999 132.572658 958.897832 132.572658 C 967.037666 132.572658 973.625844 139.163827 973.625844 147.301386 C 973.600407 155.438945 967.012229 162.004763 958.897832 162.004763 Z M 958.897832 162.030114 " transform="matrix(0.153566,0,0,0.154089,0,0.0251703)"/>
<path style="fill:none;stroke-width:0.5;stroke-linecap:butt;stroke-linejoin:miter;stroke:url(#linear36);stroke-miterlimit:10;" d="M 960.678421 147.808399 L 960.678421 147.732347 C 962.687942 147.123931 964.036102 145.273334 964.010665 143.19458 C 964.036102 141.927048 963.527363 140.684866 962.611631 139.822944 C 961.492404 138.834268 959.915312 138.377957 957.473362 138.377957 C 955.998017 138.377957 954.522672 138.50471 953.072764 138.758217 L 953.072764 156.250165 L 955.362092 156.250165 L 955.362092 148.568918 L 957.524235 148.568918 C 959.610068 148.64497 960.525799 149.557594 961.085413 151.991256 C 961.339782 153.461594 961.721337 154.88123 962.255514 156.250165 L 964.621153 156.250165 C 964.036102 154.678425 963.578237 153.030633 963.247556 151.382841 C 962.891438 149.532243 962.052018 148.264711 960.678421 147.808399 Z M 957.753168 146.794373 L 955.412966 146.794373 L 955.412966 140.329957 C 956.150639 140.152502 956.913748 140.07645 957.676857 140.101801 C 960.09337 140.101801 961.746774 141.115827 961.746774 143.422736 C 961.746774 145.50149 960.195118 146.819723 957.753168 146.819723 Z M 957.753168 146.794373 " transform="matrix(0.153566,0,0,0.154089,0,0.0251703)"/>
</g>
</svg>
